<?xml version="1.0" standalone="no"?>
<!DOCTYPE svg PUBLIC "-//W3C//DTD SVG 20010904//EN"
 "http://www.w3.org/TR/2001/REC-SVG-20010904/DTD/svg10.dtd">
<svg version="1.0" xmlns="http://www.w3.org/2000/svg"
 width="544.000000pt" height="544.000000pt" viewBox="0 0 544.000000 544.000000"
 preserveAspectRatio="xMidYMid meet">
<metadata>
Created by potrace 1.14, written by Peter Selinger 2001-2017
</metadata>
<g transform="translate(0.000000,544.000000) scale(0.100000,-0.100000)"
fill="#000000" stroke="none">
<path d="M2627 5304 c-1 -1 -49 -5 -107 -9 -58 -4 -121 -9 -140 -12 -19 -3
-47 -6 -62 -6 -16 -1 -28 -6 -28 -11 0 -4 -13 -6 -30 -4 -16 3 -30 2 -30 -1 0
-11 -106 -32 -126 -25 -16 5 -16 4 -4 -5 13 -9 13 -11 0 -12 -8 0 -24 -3 -35
-5 -11 -2 -29 -6 -40 -7 -11 -2 -30 -9 -43 -16 -13 -7 -30 -10 -38 -7 -8 3
-12 2 -9 -3 7 -12 -31 -25 -45 -16 -5 3 -10 1 -10 -5 0 -7 -7 -10 -15 -6 -8 3
-15 1 -15 -5 0 -6 -7 -9 -15 -5 -8 3 -15 2 -15 -2 0 -12 -80 -43 -93 -36 -7 4
-9 3 -4 -1 8 -10 -82 -57 -95 -49 -4 3 -8 1 -8 -4 0 -10 -60 -38 -72 -34 -5 1
-8 -2 -8 -8 0 -5 -18 -19 -40 -30 -22 -11 -40 -17 -40 -13 0 4 -7 -2 -16 -13
-8 -10 -13 -12 -9 -4 4 9 0 8 -8 -3 -22 -27 -120 -86 -131 -80 -5 3 -6 1 -2
-5 3 -6 -10 -20 -31 -33 -38 -24 -141 -106 -182 -146 -13 -12 -27 -20 -32 -17
-5 3 -8 1 -7 -4 4 -13 -134 -142 -144 -136 -5 3 -7 1 -6 -5 2 -5 -31 -47 -72
-92 -41 -45 -81 -91 -89 -102 -11 -15 -15 -16 -23 -6 -7 10 -8 9 -4 -5 7 -20
-11 -49 -25 -40 -5 3 -6 -2 -3 -10 4 -11 0 -16 -10 -16 -9 0 -15 -4 -14 -9 2
-4 -6 -17 -17 -27 -12 -11 -14 -14 -6 -9 8 6 4 -6 -9 -25 -13 -19 -28 -37 -33
-39 -4 -2 -13 -15 -19 -30 -6 -15 -12 -21 -15 -13 -3 6 -9 12 -15 12 -7 0 -6
-5 1 -14 17 -20 -4 -60 -26 -52 -13 5 -14 4 -3 -9 10 -12 10 -15 0 -15 -8 0
-10 -3 -7 -6 4 -4 -2 -19 -12 -33 -10 -14 -21 -34 -24 -45 -6 -16 -10 -16 -25
-5 -15 13 -16 12 -4 -3 10 -13 11 -22 2 -37 -6 -12 -13 -21 -16 -21 -3 0 -2 5
2 12 4 7 3 8 -5 4 -6 -4 -9 -12 -5 -17 3 -6 0 -24 -7 -40 -7 -18 -15 -26 -19
-19 -4 6 -7 -2 -7 -17 -1 -34 -29 -103 -43 -103 -5 0 -6 -7 -3 -17 5 -12 3
-14 -7 -8 -8 5 -11 4 -7 -2 5 -8 -2 -38 -29 -115 -4 -10 -10 -16 -14 -13 -4 2
-5 -7 -2 -22 3 -16 1 -24 -5 -20 -6 4 -10 1 -10 -6 2 -20 -36 -177 -42 -177
-3 0 -7 -19 -8 -42 -2 -23 -6 -44 -10 -47 -5 -3 -9 -26 -11 -51 -2 -24 -8 -48
-15 -52 -9 -6 -9 -8 0 -8 9 0 10 -7 3 -25 -5 -14 -7 -25 -4 -25 4 0 3 -6 -2
-12 -5 -7 -9 -43 -9 -80 0 -38 -2 -68 -5 -68 -3 0 -5 -18 -3 -40 1 -27 -2 -38
-9 -34 -7 5 -8 2 -3 -6 4 -7 9 -90 9 -184 1 -94 5 -177 10 -184 4 -7 2 -12 -6
-12 -9 0 -9 -3 2 -10 12 -8 13 -11 1 -19 -8 -5 -9 -10 -3 -12 6 -2 13 -20 15
-39 2 -20 6 -41 10 -47 4 -6 3 -15 -3 -18 -7 -4 -8 -11 -2 -18 6 -7 13 -30 16
-52 4 -22 9 -56 13 -75 3 -19 6 -45 7 -57 1 -13 5 -23 10 -23 4 0 6 -9 3 -20
-3 -11 -2 -20 3 -20 7 0 23 -56 24 -85 1 -5 4 -12 7 -15 7 -6 52 -140 52 -157
0 -7 5 -13 10 -13 5 0 7 -9 4 -20 -3 -11 -1 -18 3 -15 11 7 32 -54 23 -69 -3
-6 -2 -8 2 -3 11 10 66 -104 59 -123 -3 -8 -2 -11 2 -7 8 8 55 -69 57 -95 1
-9 5 -14 9 -12 7 5 9 -3 7 -22 0 -3 6 -11 15 -17 8 -7 16 -18 18 -26 2 -8 11
-23 21 -33 10 -10 15 -24 11 -30 -4 -7 -3 -8 4 -4 11 7 17 -6 13 -27 -1 -5 3
-6 9 -2 10 6 15 -9 10 -30 -1 -5 2 -7 6 -3 4 4 41 -38 83 -95 88 -119 118
-153 227 -262 93 -93 160 -153 194 -176 14 -10 35 -26 47 -38 12 -12 25 -21
28 -21 3 0 15 -9 27 -20 12 -11 40 -32 62 -47 23 -16 43 -31 44 -35 2 -5 10
-8 18 -8 9 0 12 -5 8 -12 -4 -6 -3 -8 3 -5 6 4 28 -5 48 -19 21 -14 73 -44
117 -66 43 -22 78 -45 78 -50 0 -5 4 -7 9 -4 13 8 62 -19 53 -29 -4 -5 -2 -5
5 -2 6 4 40 -6 75 -22 55 -25 194 -77 230 -86 34 -8 58 -18 58 -24 0 -3 14 -7
32 -7 18 -1 34 -6 35 -11 2 -6 15 -8 30 -5 14 3 23 1 20 -4 -3 -5 7 -10 21
-11 30 -2 66 -8 109 -17 46 -10 86 -17 123 -21 19 -2 36 -5 38 -6 16 -12 447
-30 447 -19 0 1 14 3 30 4 58 6 140 18 148 23 4 2 7 -2 7 -9 0 -9 2 -10 8 -2
6 11 77 26 130 28 12 1 22 3 22 6 0 6 29 12 72 14 14 0 24 5 21 10 -3 5 6 7
21 4 14 -3 26 -2 26 1 0 12 139 53 153 45 6 -4 9 -3 4 1 -7 9 102 56 135 58 9
1 14 6 11 11 -4 5 1 7 10 3 10 -3 17 -3 17 1 0 12 59 34 72 26 7 -4 10 -3 5 1
-7 9 165 106 191 108 6 0 12 4 12 9 0 5 10 12 23 17 25 10 168 102 208 135 45
36 82 61 90 61 4 0 11 4 16 9 5 5 2 6 -7 2 -8 -4 -4 1 9 12 14 11 32 18 40 15
13 -4 13 -3 2 5 -11 8 -10 11 4 19 9 6 40 32 68 59 28 27 45 40 37 29 -14 -20
-14 -20 7 -1 13 10 21 22 18 26 -8 12 63 68 73 58 6 -6 13 -5 17 3 5 8 4 10
-3 5 -7 -4 -12 -1 -12 7 0 18 34 49 44 40 4 -5 6 -3 5 2 -5 14 24 55 38 55 6
0 15 5 19 12 5 7 2 8 -7 3 -14 -8 19 33 58 71 12 12 19 25 16 28 -3 3 2 8 11
12 9 3 13 10 10 15 -3 5 3 9 12 9 10 0 14 3 11 7 -4 3 1 12 11 20 11 10 12 12
2 8 -9 -4 -6 2 5 12 11 10 21 25 23 33 2 8 12 24 23 36 10 11 19 25 19 32 0 6
10 18 22 26 12 9 19 16 15 16 -11 0 35 81 49 87 8 3 12 9 9 13 -3 5 2 15 10
24 9 8 15 17 14 18 -5 8 14 48 22 48 6 0 8 4 4 10 -8 12 30 81 40 72 5 -4 5
-2 2 4 -11 19 24 96 41 89 12 -4 13 -3 2 10 -8 10 -9 15 -2 15 6 0 9 7 6 15
-4 8 -1 15 6 15 6 0 9 4 6 8 -8 13 19 83 29 75 4 -5 5 -3 2 3 -8 13 13 85 23
79 4 -2 5 7 2 22 -3 15 -1 24 5 20 5 -3 10 7 10 23 0 25 11 74 31 130 2 8 6
26 7 40 7 57 18 115 24 120 3 3 7 28 8 55 0 28 4 82 8 120 9 83 9 443 1 500
-14 98 -20 152 -20 183 0 17 -3 32 -8 32 -4 0 -8 11 -8 24 0 14 -4 36 -10 50
-5 14 -11 44 -12 66 -2 22 -7 40 -12 40 -4 0 -6 9 -3 20 3 11 2 20 -3 20 -9 0
-31 81 -24 92 3 4 1 8 -5 8 -13 0 -44 107 -35 122 4 7 3 8 -4 4 -11 -7 -14 -3
-16 27 -1 6 -5 15 -9 18 -5 4 -10 18 -10 32 -1 14 -5 23 -9 20 -7 -4 -12 20
-9 40 1 5 -3 6 -8 3 -12 -8 -25 30 -15 45 4 7 3 9 -3 6 -11 -7 -46 60 -38 74
4 5 2 9 -4 9 -14 0 -53 78 -46 91 4 5 1 8 -7 7 -7 -2 -12 3 -10 10 1 6 -3 12
-10 12 -6 0 -9 3 -6 6 3 3 -5 17 -18 31 -14 15 -27 37 -30 50 -4 13 -9 23 -13
23 -12 0 -41 57 -33 64 4 4 0 6 -8 4 -8 -1 -14 3 -12 10 1 6 -3 12 -10 12 -6
0 -8 3 -5 7 4 3 -2 13 -13 20 -11 8 -18 19 -15 24 4 5 2 9 -3 9 -5 0 -25 21
-43 46 -19 25 -46 57 -61 71 -15 14 -25 30 -21 36 3 6 1 7 -5 3 -13 -8 -35 28
-24 39 4 5 2 5 -4 2 -6 -4 -55 39 -109 95 -55 56 -95 96 -91 88 5 -8 -9 3 -30
25 -21 22 -41 40 -44 40 -13 0 -60 44 -60 56 0 7 -3 9 -7 5 -4 -3 -13 4 -20
16 -7 13 -12 17 -13 10 0 -9 -7 -8 -24 5 -13 10 -21 22 -18 27 3 5 1 6 -5 3
-5 -4 -21 4 -34 16 -13 12 -26 21 -29 21 -12 -3 -29 9 -24 17 3 5 -4 9 -16 9
-11 0 -33 12 -47 28 -15 15 -23 21 -19 14 4 -7 -14 1 -40 18 -26 16 -54 30
-60 30 -7 0 -17 7 -22 16 -5 9 -12 15 -16 14 -4 -1 -20 4 -37 10 -23 10 -27
15 -17 22 10 7 8 8 -5 4 -19 -6 -107 32 -107 47 0 4 -4 6 -9 3 -14 -9 -42 5
-34 17 4 6 0 8 -10 4 -10 -3 -24 -4 -32 -1 -13 5 -13 9 -3 22 11 13 10 14 -5
5 -23 -12 -69 -5 -60 10 3 6 1 7 -6 3 -6 -4 -18 -2 -26 4 -8 7 -15 9 -15 4 0
-4 -7 1 -16 12 -8 10 -12 13 -8 5 5 -11 2 -13 -17 -8 -13 4 -28 7 -32 7 -5 0
-5 4 -2 10 3 6 -1 7 -9 4 -9 -3 -16 -2 -16 4 0 5 -12 7 -26 4 -20 -4 -25 -2
-19 8 5 9 4 11 -3 6 -6 -4 -29 -2 -49 3 -46 12 -82 19 -106 20 -10 1 -15 5
-12 11 3 6 -1 7 -9 4 -9 -3 -24 -3 -33 1 -10 4 -33 8 -50 8 -18 0 -33 3 -33 6
0 4 -17 7 -37 7 -21 1 -87 4 -148 8 -140 9 -235 13 -238 10z m253 -368 c98 -7
97 -7 265 -40 65 -13 181 -49 183 -57 2 -5 8 -7 12 -4 8 5 53 -9 115 -35 11
-5 37 -14 57 -21 20 -7 34 -17 31 -22 -3 -6 -1 -7 5 -3 13 8 83 -24 76 -36 -3
-4 1 -5 9 -2 8 3 21 -1 28 -8 8 -7 21 -14 29 -16 7 -2 26 -12 41 -23 15 -10
30 -19 33 -19 16 0 239 -155 296 -206 8 -7 34 -30 57 -50 24 -20 40 -40 37
-45 -3 -5 -2 -9 3 -8 19 3 33 -2 33 -12 0 -5 -5 -7 -12 -3 -7 4 -8 3 -4 -5 4
-6 11 -9 16 -6 10 6 80 -60 80 -75 0 -6 6 -10 14 -10 8 0 18 -9 21 -20 3 -11
10 -20 14 -20 5 0 28 -26 52 -57 24 -32 51 -67 61 -78 9 -11 17 -22 16 -25 -1
-3 10 -17 25 -33 17 -16 25 -32 21 -40 -4 -6 -3 -9 1 -4 11 9 86 -103 78 -116
-3 -6 -2 -7 4 -4 5 4 16 -6 24 -21 8 -15 16 -29 19 -32 17 -17 40 -72 34 -83
-4 -6 -4 -9 1 -5 11 10 47 -60 39 -74 -5 -7 -2 -8 6 -3 10 6 11 1 6 -21 -4
-18 -3 -24 2 -16 7 10 13 5 22 -20 7 -18 13 -41 13 -50 0 -10 4 -15 8 -12 8 5
13 -12 12 -43 -1 -7 4 -10 10 -6 6 4 8 -4 3 -21 -4 -17 -3 -25 3 -22 11 7 25
-29 16 -44 -3 -5 -1 -10 5 -10 7 0 9 -7 6 -16 -4 -10 -2 -13 6 -8 7 5 9 -1 6
-19 -3 -15 -1 -24 3 -21 5 3 9 -7 9 -21 0 -15 5 -36 11 -47 9 -16 8 -19 -3
-12 -11 7 -11 5 0 -9 8 -9 11 -21 7 -27 -3 -5 -1 -10 6 -10 8 0 9 -10 5 -30
-3 -17 -2 -29 3 -26 10 6 24 -81 15 -95 -3 -5 -1 -9 4 -9 12 0 16 -95 16 -340
0 -214 -6 -266 -27 -253 -7 4 -6 -1 2 -11 12 -14 13 -21 2 -38 -9 -14 -9 -18
-1 -13 9 5 10 1 4 -16 -4 -13 -7 -29 -7 -36 0 -7 -3 -10 -6 -8 -4 2 -7 -15 -7
-38 -1 -23 -7 -43 -13 -45 -6 -2 -9 -8 -5 -13 5 -8 -20 -99 -34 -124 -3 -5 -7
-16 -8 -25 -2 -30 -27 -100 -35 -100 -5 0 -6 -6 -3 -13 2 -7 -2 -21 -10 -32
-12 -15 -15 -16 -16 -5 0 13 -2 13 -11 0 -9 -13 -10 -13 -6 1 3 9 0 22 -6 28
-8 8 -8 11 1 11 7 0 12 5 12 11 0 5 -4 8 -8 5 -4 -2 -8 25 -7 62 0 37 -3 72
-6 77 -11 19 -17 55 -8 49 5 -3 9 0 9 5 0 6 -5 11 -11 11 -7 0 -9 13 -5 38 4
23 3 32 -2 24 -12 -18 -22 30 -16 73 4 25 3 26 -5 10 -9 -18 -10 -17 -11 10
-2 17 -2 36 -1 44 2 7 -2 10 -8 6 -10 -5 -16 22 -12 48 0 4 -3 7 -8 7 -5 0
-15 17 -22 38 -7 20 -29 71 -50 112 -22 41 -39 81 -39 88 0 6 -5 12 -11 12 -8
0 -7 5 1 16 8 8 9 14 4 13 -18 -3 -37 1 -31 7 3 3 -5 16 -18 28 -13 12 -25 28
-27 35 -6 28 -199 231 -285 300 -23 19 -39 39 -36 45 3 6 3 8 -2 4 -4 -4 -14
0 -22 10 -8 9 -12 11 -8 5 8 -17 0 -16 -19 2 -8 8 -53 35 -99 59 -47 25 -82
47 -79 51 4 3 -1 3 -10 0 -8 -3 -22 1 -31 9 -8 8 -16 13 -19 11 -2 -2 -26 3
-53 11 -114 35 -317 48 -412 26 -33 -8 -45 -7 -54 4 -6 8 -17 14 -23 14 -6 0
-3 -5 7 -11 9 -6 15 -14 12 -20 -4 -5 6 -9 20 -9 17 0 24 -4 19 -12 -4 -7 -3
-8 5 -4 12 8 134 -38 161 -60 8 -7 18 -12 21 -11 10 3 171 -98 227 -143 28
-23 49 -47 45 -52 -3 -6 -1 -8 5 -4 6 3 26 -9 46 -28 20 -18 36 -32 36 -30 0
2 17 -15 38 -37 20 -23 37 -45 37 -50 0 -4 4 -11 9 -16 5 -5 6 -2 2 7 -4 8 2
4 13 -9 12 -12 18 -28 14 -34 -3 -5 -1 -7 5 -4 13 9 74 -72 65 -86 -3 -6 -1
-7 5 -3 13 8 56 -60 46 -75 -4 -7 -3 -9 4 -6 16 10 105 -145 114 -198 2 -11 5
-22 8 -25 13 -12 47 -107 45 -127 -1 -12 2 -20 6 -18 4 3 9 -2 12 -9 3 -8 1
-17 -6 -20 -9 -3 -9 -7 0 -13 7 -5 14 -27 15 -48 2 -22 6 -42 9 -45 17 -13 30
-249 16 -267 -6 -9 -6 -13 1 -13 6 0 10 -6 7 -12 -2 -7 -6 -47 -10 -88 -3 -41
-10 -77 -15 -80 -5 -3 -5 -11 -1 -19 5 -7 2 -29 -5 -49 -7 -20 -13 -45 -14
-54 0 -21 -32 -92 -43 -96 -4 -2 -5 -8 -2 -13 6 -8 -42 -139 -54 -149 -3 -3
-19 -30 -35 -60 -37 -70 -61 -101 -71 -92 -5 4 -5 2 -2 -4 8 -13 -40 -80 -54
-76 -6 1 -8 -1 -6 -5 8 -12 -20 -46 -31 -39 -5 3 -9 -2 -8 -11 0 -9 -9 -22
-20 -28 -33 -16 -54 -36 -49 -45 6 -10 -46 -46 -60 -41 -5 1 -7 -1 -3 -5 11
-10 -54 -65 -70 -59 -7 3 -11 1 -8 -4 8 -12 -43 -44 -59 -37 -8 3 -17 0 -21
-6 -5 -7 -2 -8 6 -3 8 5 11 3 9 -4 -3 -7 -8 -12 -13 -11 -5 1 -12 -2 -15 -7
-11 -16 -144 -86 -137 -72 5 9 3 9 -6 -1 -17 -20 -67 -42 -79 -34 -5 3 -12 -2
-15 -11 -4 -9 -12 -14 -20 -11 -7 3 -14 0 -16 -5 -2 -6 -10 -11 -18 -12 -8 -2
-21 -6 -28 -10 -7 -5 -22 -5 -33 -2 -14 5 -19 3 -15 -3 7 -12 -59 -36 -74 -27
-5 3 -10 2 -10 -4 0 -10 -66 -25 -112 -26 -14 0 -24 -4 -21 -9 4 -5 -7 -6 -26
-3 -22 5 -30 3 -25 -4 4 -7 -4 -10 -22 -8 -16 2 -34 1 -39 -3 -6 -3 -25 -5
-43 -4 -17 0 -32 -2 -32 -5 0 -3 -34 -5 -75 -5 -43 1 -75 -3 -76 -9 0 -5 -3
-4 -6 3 -2 6 -9 12 -14 12 -6 0 -8 -4 -5 -8 2 -4 -4 -8 -14 -9 -11 -1 -22 2
-25 8 -4 5 -11 9 -16 9 -6 0 -8 -4 -5 -8 3 -5 -1 -9 -9 -9 -8 0 -12 4 -9 9 3
4 0 8 -5 8 -6 0 -11 -5 -11 -10 0 -7 -6 -7 -20 0 -11 6 -20 7 -20 3 0 -4 -22
-6 -50 -5 -29 2 -50 9 -50 15 0 7 -5 5 -10 -3 -5 -8 -10 -10 -10 -3 0 6 -9 9
-20 6 -11 -3 -33 0 -50 6 -17 5 -28 6 -25 1 3 -5 -9 -4 -27 1 -18 6 -41 11
-51 12 -10 1 -22 9 -27 17 -8 12 -10 12 -10 1 0 -9 -8 -12 -22 -8 -50 11 -135
36 -163 48 -16 7 -36 11 -44 10 -8 -1 -10 2 -5 10 5 8 2 11 -8 6 -20 -7 -130
32 -122 44 3 5 -2 6 -10 3 -9 -3 -16 -1 -16 5 0 6 -7 8 -15 5 -8 -4 -17 1 -21
10 -3 9 -11 15 -18 14 -21 -4 -56 13 -50 24 4 6 2 8 -4 5 -13 -9 -161 68 -185
97 -10 11 -16 14 -12 6 4 -8 -1 -6 -10 5 -9 11 -18 18 -20 15 -6 -8 -105 53
-100 61 3 4 -3 13 -12 20 -14 12 -16 12 -8 -1 10 -17 10 -17 -62 40 -23 18
-40 37 -36 43 3 6 1 7 -6 3 -7 -5 -26 7 -47 28 -20 20 -40 36 -46 36 -5 0 -6
5 -3 10 3 6 -1 10 -9 10 -9 0 -16 6 -16 14 0 8 -5 18 -12 22 -7 5 -9 2 -4 -7
5 -8 -24 19 -63 59 -39 40 -69 78 -65 83 3 5 0 8 -7 7 -16 -4 -210 253 -204
270 3 7 1 11 -3 8 -5 -3 -16 8 -26 25 -9 16 -14 29 -11 29 4 0 -1 7 -9 16 -9
8 -13 20 -10 26 4 6 3 8 -3 5 -21 -13 -194 387 -179 412 4 5 2 11 -4 13 -6 2
-11 17 -13 35 -1 17 -6 29 -11 25 -5 -3 -7 5 -4 16 4 12 2 22 -4 22 -6 0 -8 9
-5 20 3 10 1 20 -4 22 -5 2 -11 21 -14 43 -2 22 -8 54 -13 70 -5 17 -9 45 -8
63 1 17 -2 32 -5 32 -3 0 -6 15 -5 33 1 17 -2 42 -6 54 -4 12 -3 25 3 29 7 4
6 10 -1 20 -7 8 -10 37 -8 69 1 30 -1 55 -5 55 -5 0 -6 4 -3 8 3 5 6 65 8 135
1 70 5 127 8 127 3 0 5 24 6 53 1 51 4 73 23 172 9 44 37 154 57 222 3 13 10
21 14 18 5 -3 6 5 3 16 -4 14 0 27 11 35 10 7 15 17 11 23 -3 6 -2 11 4 11 6
0 8 6 5 14 -5 14 22 31 30 18 2 -4 6 -64 8 -134 1 -71 7 -128 12 -128 4 0 6
-15 4 -34 -2 -21 0 -32 6 -29 5 4 7 -1 2 -12 -4 -11 -2 -22 6 -26 6 -4 12 -24
12 -43 0 -23 3 -31 9 -23 6 8 7 4 4 -10 -3 -13 -2 -23 2 -23 11 0 31 -71 24
-83 -3 -6 -1 -7 5 -3 11 7 16 -7 15 -41 -1 -7 4 -10 10 -6 6 4 8 0 4 -11 -4
-9 -3 -15 2 -12 5 3 20 -20 34 -52 15 -31 40 -79 57 -107 16 -27 33 -57 37
-65 4 -8 13 -20 21 -26 9 -7 12 -16 7 -24 -5 -8 -4 -11 2 -7 5 4 23 -10 39
-31 15 -20 72 -81 125 -134 53 -54 93 -100 90 -103 -3 -4 3 -3 13 1 16 6 17 3
11 -17 -4 -17 -3 -20 3 -10 10 14 36 6 28 -8 -3 -4 0 -8 7 -8 7 0 37 -15 67
-34 66 -42 190 -99 214 -99 10 0 14 -5 10 -12 -4 -7 -3 -8 4 -4 6 4 36 0 66
-8 30 -7 58 -11 61 -8 3 4 10 0 15 -8 6 -9 10 -10 10 -3 0 8 9 9 28 5 15 -4
36 -7 47 -7 11 0 23 -4 27 -10 5 -7 8 -7 8 1 0 6 22 10 53 10 28 -1 75 1 102
4 l50 6 -42 20 c-24 12 -40 24 -35 29 4 5 2 5 -5 2 -13 -8 -45 2 -39 12 2 3
-8 7 -22 8 -15 0 -28 6 -30 12 -2 6 -10 11 -18 11 -8 0 -17 6 -20 14 -3 8 -11
13 -17 11 -7 -3 -23 5 -37 16 -14 11 -19 17 -11 13 9 -4 12 -3 8 4 -4 5 -16 8
-27 5 -12 -3 -20 0 -20 6 0 7 5 9 12 5 7 -4 8 -3 4 5 -4 6 -11 9 -16 6 -13 -8
-61 25 -54 36 3 5 -1 6 -9 3 -8 -3 -20 3 -28 13 -13 17 -13 17 6 3 19 -14 19
-14 6 2 -7 10 -17 16 -21 13 -4 -2 -20 7 -36 21 -16 15 -22 23 -14 19 8 -5 12
-5 8 -1 -3 4 -9 7 -13 6 -13 -4 -94 83 -88 93 3 6 1 7 -5 3 -12 -7 -79 71 -74
88 2 6 0 8 -4 4 -10 -10 -45 32 -37 45 3 5 2 8 -3 5 -5 -3 -27 19 -48 50 -21
30 -33 51 -25 47 8 -5 2 3 -13 17 -39 38 -60 82 -45 97 9 10 8 11 -5 6 -17 -7
-23 3 -19 28 0 4 -4 7 -10 7 -6 0 -8 7 -5 16 3 8 2 12 -4 9 -9 -5 -15 15 -11
38 0 4 -4 7 -10 7 -6 0 -8 7 -5 16 3 8 2 13 -3 10 -5 -3 -12 1 -15 10 -4 10
-2 13 7 8 6 -4 5 1 -3 12 -20 25 -45 98 -67 199 -22 100 -26 482 -6 507 7 8
10 18 7 21 -9 8 16 108 25 102 4 -2 8 2 8 10 0 8 -4 12 -9 9 -4 -3 -5 2 -2 10
3 9 10 16 16 16 5 0 7 4 4 9 -7 11 23 101 35 101 4 0 6 7 3 15 -4 8 1 17 10
21 9 3 13 10 10 15 -3 5 -1 9 5 9 6 0 7 7 4 17 -4 10 -2 14 4 10 6 -4 14 0 17
9 3 8 2 12 -4 9 -6 -3 -7 1 -4 9 3 9 12 16 20 16 8 0 14 2 14 4 0 2 3 13 6 23
6 16 5 16 -10 -2 -16 -19 -16 -18 -1 13 8 17 18 32 21 32 3 0 2 -5 -2 -12 -4
-7 -3 -8 4 -4 6 4 9 13 6 21 -4 8 1 18 10 21 9 3 14 10 11 14 -3 5 0 12 7 17
7 4 18 17 25 28 6 11 17 19 25 17 7 -2 10 0 6 3 -11 11 11 47 24 39 6 -4 8 -3
5 4 -8 12 102 132 122 132 8 0 12 3 8 6 -8 8 95 94 105 88 5 -3 8 -1 8 4 0 10
116 85 188 121 23 12 48 19 55 15 7 -4 9 -3 4 1 -8 9 103 64 137 68 11 1 23 5
26 8 16 18 216 72 272 73 14 1 24 5 21 10 -3 5 8 7 26 4 17 -2 31 -1 31 3 0 3
11 9 25 11 14 3 25 1 25 -3 0 -5 5 -9 11 -9 5 0 7 5 3 11 -4 8 6 10 35 6 22
-2 38 -1 36 3 -3 4 23 8 57 9 33 0 62 2 64 3 4 4 149 1 244 -6z"/>
<path d="M2566 4603 c-7 -7 -23 -9 -99 -14 -21 -1 -40 -6 -43 -11 -3 -4 -14
-3 -26 3 -15 8 -19 8 -14 0 4 -6 0 -11 -11 -12 -10 0 -27 -3 -38 -6 -11 -3
-30 -6 -42 -7 -11 0 -19 -4 -16 -8 4 -8 -26 -12 -62 -10 -15 2 -17 0 -6 -7 10
-6 1 -11 -30 -17 -24 -5 -49 -9 -56 -9 -6 0 -15 -4 -20 -9 -4 -5 -3 -6 5 -2 6
4 12 5 12 2 0 -11 -72 -36 -84 -29 -6 3 -8 2 -3 -2 6 -7 -63 -54 -87 -58 -9
-2 -20 -11 -121 -94 -38 -32 -85 -73 -103 -91 -18 -18 -37 -30 -42 -27 -6 3
-8 0 -5 -7 3 -7 -5 -24 -18 -38 -41 -46 -156 -246 -165 -290 -2 -8 -7 -16 -12
-18 -5 -2 -7 -9 -4 -16 3 -7 0 -26 -7 -42 -6 -16 -14 -47 -16 -69 -3 -22 -10
-46 -17 -54 -9 -12 -8 -13 3 -6 10 6 12 4 5 -6 -11 -18 -13 -260 -2 -275 4 -6
9 -34 10 -61 2 -28 7 -48 12 -45 5 3 7 -4 4 -16 -3 -12 -2 -22 3 -24 5 -2 10
-17 12 -35 1 -17 5 -29 10 -26 7 4 11 -15 10 -45 -1 -7 2 -11 5 -8 6 6 44 -71
45 -91 0 -7 4 -13 8 -13 11 0 60 -87 57 -102 -2 -6 2 -12 9 -13 6 0 29 -22 50
-50 42 -55 110 -124 160 -162 18 -14 30 -30 26 -36 -4 -6 -1 -7 7 -2 7 4 15 4
19 -1 10 -15 64 -50 119 -79 29 -15 50 -30 47 -34 -2 -4 6 -7 18 -7 12 1 21
-4 20 -10 -1 -7 6 -10 17 -7 11 3 26 1 33 -4 6 -5 32 -16 57 -23 25 -8 51 -21
58 -30 8 -8 10 -9 7 -2 -6 11 1 12 31 7 22 -4 45 -7 52 -8 6 0 12 -3 12 -6 0
-3 24 -7 53 -8 28 -1 80 -2 115 -3 34 -2 65 -7 68 -11 3 -5 15 -4 26 2 15 8
22 8 28 -1 5 -8 10 -9 14 -2 3 6 16 9 29 7 12 -2 53 -6 92 -9 38 -3 71 -10 73
-15 2 -6 10 -7 18 -4 8 3 21 0 29 -7 8 -7 15 -10 15 -7 0 17 180 -83 188 -104
2 -5 9 -9 15 -9 14 -1 86 -89 114 -140 34 -61 55 -138 58 -219 3 -75 -8 -160
-23 -171 -4 -3 -8 -16 -10 -30 -1 -14 -11 -32 -22 -41 -10 -9 -17 -19 -13 -22
8 -9 -23 -37 -32 -29 -5 4 -5 1 -1 -5 9 -17 -35 -75 -52 -68 -8 3 -10 0 -6 -6
21 -35 -240 -165 -291 -146 -8 4 -15 2 -15 -3 0 -6 -11 -10 -25 -10 -14 0 -25
6 -25 13 0 9 -2 9 -9 -1 -9 -15 -58 -14 -80 3 -11 7 -13 7 -8 -1 3 -6 0 -11
-8 -11 -8 0 -12 4 -9 9 3 5 -6 6 -20 2 -35 -9 -79 3 -69 19 4 8 1 7 -10 -2
-12 -9 -17 -10 -17 -2 0 7 -4 10 -10 6 -5 -3 -21 -3 -35 1 -20 5 -24 9 -13 16
8 5 3 6 -14 2 -17 -4 -28 -2 -28 5 0 6 -7 8 -17 4 -10 -4 -14 -2 -9 5 4 7 -1
10 -14 7 -11 -2 -20 1 -20 6 0 6 -5 7 -11 4 -6 -4 -17 1 -25 11 -9 11 -13 13
-9 6 6 -12 -19 -13 -40 -1 -8 5 -48 17 -75 23 -33 8 -100 32 -100 36 0 3 -12
6 -26 7 -15 0 -29 5 -33 10 -3 4 -19 9 -35 10 -16 1 -38 10 -49 20 -11 10 -17
12 -13 5 7 -11 4 -12 -12 -3 -12 6 -24 16 -27 21 -4 6 -16 8 -27 4 -15 -4 -18
-3 -13 6 5 9 1 10 -15 5 -14 -4 -20 -3 -16 3 3 5 -1 13 -10 16 -24 9 -31 7
-14 -4 13 -8 12 -10 -3 -10 -10 0 -20 6 -23 14 -3 9 -12 12 -21 9 -12 -5 -14
-3 -8 6 5 10 2 11 -14 6 -13 -4 -21 -2 -21 5 0 6 -4 9 -9 6 -14 -9 -42 5 -35
16 4 6 -1 8 -14 4 -13 -4 -22 -1 -26 9 -3 8 -11 15 -18 15 -9 0 -9 -3 2 -11
12 -9 12 -10 -3 -5 -10 3 -21 6 -23 6 -3 0 -2 5 2 11 4 8 0 9 -15 4 -13 -4
-21 -2 -21 5 0 6 -4 9 -9 6 -13 -8 -83 29 -74 39 4 4 0 5 -9 2 -10 -4 -18 -2
-18 4 0 6 -5 7 -12 3 -7 -5 -9 -2 -5 8 4 12 0 15 -18 13 -13 -1 -26 4 -29 11
-3 8 -11 14 -18 14 -9 0 -8 -3 2 -10 8 -5 10 -10 4 -10 -5 0 -19 8 -30 18 -11
10 -31 22 -44 25 -14 4 -36 16 -50 28 -14 11 -20 18 -13 15 6 -4 14 -2 17 2 3
5 -5 8 -17 7 -25 -1 -43 6 -72 30 -11 9 -14 13 -6 9 9 -4 12 -3 7 4 -4 6 -12
9 -19 7 -7 -3 -29 11 -50 30 -21 19 -43 35 -48 35 -6 0 -7 5 -3 12 4 7 3 8 -4
4 -11 -7 -48 22 -129 100 -28 27 -32 28 -36 12 -3 -11 -1 -15 5 -12 7 5 9 -2
6 -19 -3 -17 -1 -24 5 -20 6 4 8 0 4 -11 -4 -10 -3 -15 3 -11 11 7 25 -39 15
-55 -3 -6 -2 -9 5 -8 6 2 34 -42 63 -97 29 -55 61 -112 71 -127 10 -16 16 -28
13 -28 -2 0 11 -17 29 -37 19 -20 34 -40 34 -44 0 -3 15 -26 34 -50 19 -23 32
-47 30 -51 -3 -4 2 -8 10 -8 9 0 16 -9 16 -20 0 -11 3 -19 8 -18 4 2 9 -1 12
-7 3 -5 20 -23 37 -39 18 -15 31 -32 28 -36 -3 -5 0 -12 6 -16 8 -5 9 -3 4 5
-4 7 24 -18 63 -56 38 -37 67 -72 64 -77 -3 -5 -1 -6 4 -3 5 3 33 -16 62 -43
29 -26 52 -46 52 -43 0 3 13 -6 29 -19 15 -12 39 -30 51 -38 13 -8 32 -23 42
-32 10 -10 18 -15 18 -12 0 3 15 -5 32 -18 45 -31 115 -70 228 -124 52 -26
107 -52 121 -60 14 -7 29 -11 32 -8 3 3 15 0 27 -6 12 -6 29 -13 38 -15 28 -5
136 -37 146 -43 5 -3 23 -6 40 -8 17 -1 45 -5 61 -9 119 -24 487 -24 547 0 9
4 22 3 29 -1 8 -5 9 -3 4 6 -6 10 -4 12 7 7 9 -3 19 -3 22 1 4 3 16 7 27 9 10
2 59 17 107 34 48 17 97 32 110 33 12 2 28 11 36 21 8 11 19 16 30 12 9 -4 15
-3 12 2 -7 10 22 23 34 16 5 -3 12 0 16 6 5 8 2 10 -7 5 -16 -7 3 6 64 46 23
15 45 24 51 21 5 -3 6 -1 2 5 -8 13 28 35 39 24 3 -4 5 -2 3 3 -4 12 123 141
135 137 5 -1 6 2 2 8 -3 5 1 13 9 16 9 3 16 12 16 20 0 7 8 19 18 26 9 7 18
20 20 28 2 8 11 21 20 28 9 7 16 15 15 17 -7 12 -2 25 7 20 6 -4 10 -3 9 2 -4
21 2 44 10 39 5 -3 11 7 14 23 3 16 12 35 19 42 7 8 13 19 14 24 1 23 17 65
24 65 5 0 6 10 2 22 -3 13 -1 19 5 15 7 -5 9 1 5 15 -3 15 -2 19 7 14 9 -6 10
0 5 20 -6 21 -4 25 7 19 11 -6 11 -5 2 5 -7 8 -9 19 -4 29 5 9 9 19 10 24 1 4
1 8 2 10 0 1 2 41 3 89 2 47 6 91 10 96 3 6 2 13 -4 17 -6 4 -8 10 -6 14 3 4
1 24 -4 44 -5 26 -4 37 4 37 8 0 8 2 -1 8 -6 4 -13 25 -15 47 -2 22 -5 42 -8
45 -6 6 -30 69 -35 94 -2 10 -8 23 -14 30 -5 6 -11 22 -13 36 -1 14 -9 30 -16
35 -7 6 -14 20 -15 32 0 12 -5 19 -11 16 -5 -4 -7 1 -3 11 4 10 3 15 -3 11 -6
-3 -10 1 -10 9 0 9 -3 16 -8 16 -9 0 -48 71 -44 82 1 4 -2 7 -6 6 -5 -2 -33
26 -63 62 -29 36 -62 71 -72 78 -9 7 -15 17 -12 22 5 9 -11 23 -31 26 -21 3
-65 48 -60 61 3 7 1 15 -5 18 -5 4 -9 3 -8 -2 4 -23 -4 -22 -40 6 -21 17 -44
31 -50 31 -6 0 -11 4 -11 8 0 10 -149 82 -169 82 -11 0 -11 3 0 18 13 15 12
16 -3 3 -15 -11 -22 -11 -44 4 -15 9 -23 12 -20 6 5 -7 1 -9 -8 -5 -9 3 -16
10 -16 16 0 5 -4 7 -9 4 -14 -9 -71 5 -65 16 3 5 -6 6 -23 3 -21 -5 -24 -4
-13 4 8 6 10 11 5 11 -6 0 -16 -5 -23 -12 -7 -7 -12 -8 -12 -2 0 5 -18 8 -41
6 -32 -3 -40 -1 -34 8 6 9 4 11 -5 5 -19 -12 -202 -6 -219 8 -12 9 -13 9 -7 0
5 -9 0 -13 -16 -13 -18 0 -20 2 -8 10 8 5 10 10 4 10 -5 0 -15 -5 -22 -12 -9
-9 -12 -9 -12 1 0 9 -4 10 -12 4 -16 -11 -123 9 -111 21 4 4 -5 4 -21 0 -22
-5 -27 -4 -21 6 5 9 4 11 -4 6 -6 -4 -21 -4 -32 -1 -17 6 -19 9 -8 16 10 7 5
8 -12 3 -17 -3 -30 -1 -34 7 -6 8 -4 10 5 4 8 -5 11 -4 6 3 -4 6 -14 8 -23 5
-11 -4 -25 4 -41 23 -13 16 -21 22 -17 14 4 -10 1 -9 -8 3 -8 9 -18 17 -24 17
-5 0 -25 17 -44 38 l-34 37 36 -30 c19 -16 12 -8 -15 19 -28 27 -44 46 -36 42
8 -4 7 -1 -4 8 -25 20 -47 66 -39 79 3 5 1 7 -4 4 -13 -8 -38 77 -28 94 5 8 4
10 -3 5 -8 -5 -12 4 -13 28 0 20 -1 48 -2 64 -1 48 13 132 23 132 6 0 9 3 9 8
-4 24 2 52 11 47 6 -4 7 1 3 11 -4 12 -3 15 5 10 8 -5 10 -2 6 8 -4 9 1 18 10
22 9 3 13 10 10 16 -3 5 11 25 33 45 21 20 31 33 23 28 -9 -5 -8 0 4 13 21 24
31 29 21 10 -4 -7 8 5 27 26 21 24 39 36 46 32 7 -4 12 -3 12 3 0 11 54 45 89
56 18 5 22 4 17 -6 -4 -8 -1 -6 8 4 8 11 29 20 48 20 18 1 36 6 40 11 9 13
210 16 256 4 21 -5 62 -17 92 -26 30 -9 57 -16 60 -17 49 -14 60 -18 60 -25 0
-4 6 -7 13 -6 26 3 146 -37 140 -47 -3 -6 -1 -7 5 -3 16 10 123 -25 115 -37
-3 -6 -1 -7 5 -3 15 9 92 -12 92 -25 0 -6 5 -7 11 -4 6 4 17 -1 25 -11 13 -17
13 -17 8 -1 -5 13 -2 16 10 11 9 -3 13 -11 9 -17 -3 -6 -1 -7 5 -3 10 6 72
-10 122 -31 19 -8 19 -8 53 -17 15 -5 27 -11 27 -15 0 -3 15 -7 32 -8 18 -2
34 -7 36 -13 2 -5 9 -10 15 -10 24 0 196 -73 191 -81 -3 -5 3 -6 12 -2 13 5
15 3 9 -7 -5 -8 -4 -11 3 -6 14 8 105 -47 95 -58 -4 -4 1 -4 11 0 13 5 17 4
12 -4 -5 -8 -1 -10 10 -5 10 4 15 2 11 -4 -3 -5 -1 -10 6 -10 23 0 98 -53 91
-65 -4 -7 -3 -8 5 -4 15 9 73 -32 65 -46 -4 -7 -2 -8 4 -4 12 7 54 -23 47 -35
-3 -4 1 -6 8 -5 16 1 118 -89 111 -98 -2 -3 -1 -4 3 -1 4 3 19 -6 33 -20 23
-22 28 -24 34 -10 3 9 2 14 -2 11 -7 -4 -52 100 -51 118 0 5 -3 12 -8 15 -13
9 -33 49 -33 65 0 8 -6 16 -12 19 -10 3 -10 9 1 28 10 18 10 21 0 12 -10 -10
-16 -6 -31 18 -10 17 -16 34 -13 40 4 5 2 9 -4 9 -12 0 -71 96 -64 104 4 3 2
6 -4 6 -6 0 -30 26 -54 58 -23 31 -34 50 -23 42 11 -8 8 -4 -6 10 -42 40 -107
117 -85 100 11 -8 -10 14 -47 48 -37 35 -67 69 -65 75 1 7 -3 11 -10 10 -6 -2
-31 19 -54 45 -23 26 -38 40 -34 32 8 -13 6 -13 -8 -1 -9 7 -14 18 -10 24 3 5
2 7 -4 4 -5 -3 -33 15 -61 42 -29 26 -52 45 -52 42 -1 -3 -9 4 -19 16 -10 12
-20 20 -22 18 -3 -2 -15 5 -29 17 -14 11 -20 17 -13 14 6 -4 14 -2 18 3 3 6
-4 8 -16 6 -23 -5 -133 60 -125 73 3 5 -5 8 -17 8 -13 -1 -21 4 -19 12 1 8 -2
11 -8 7 -14 -9 -52 4 -44 16 3 5 2 9 -3 8 -24 -4 -43 2 -37 13 4 6 3 8 -4 4
-13 -8 -83 24 -77 35 3 4 -5 5 -17 1 -13 -3 -19 -1 -15 5 4 6 1 11 -6 10 -31
-1 -48 4 -43 12 4 5 -4 7 -16 3 -16 -4 -19 -2 -13 8 5 8 4 11 -3 6 -14 -9 -63
4 -57 14 3 5 -5 6 -17 2 -13 -3 -19 -1 -15 5 4 6 -4 8 -21 6 -22 -4 -24 -2
-12 7 12 8 9 9 -14 4 -19 -5 -27 -3 -23 3 4 6 1 11 -6 10 -42 -1 -77 4 -73 11
3 5 -1 9 -9 9 -8 0 -12 -3 -10 -7 2 -4 -7 -5 -20 -2 -14 2 -22 8 -19 13 3 5
-2 9 -11 9 -9 0 -14 -4 -11 -9 3 -4 -13 -5 -37 -1 -23 5 -97 9 -165 9 -67 1
-128 4 -135 7 -7 2 -16 1 -21 -3z"/>
<path d="M3600 4346 c0 -3 9 -10 20 -16 11 -6 20 -8 20 -6 0 3 -9 10 -20 16
-11 6 -20 8 -20 6z"/>
<path d="M1150 3999 c0 -5 5 -7 10 -4 6 3 10 8 10 11 0 2 -4 4 -10 4 -5 0 -10
-5 -10 -11z"/>
<path d="M4261 3723 c-1 -17 16 -25 25 -12 4 7 3 9 -4 5 -5 -3 -13 0 -15 6 -4
9 -6 10 -6 1z"/>
<path d="M4340 2876 c0 -2 8 -10 18 -17 15 -13 16 -12 3 4 -13 16 -21 21 -21
13z"/>
<path d="M4580 2511 c0 -6 4 -13 10 -16 6 -3 7 1 4 9 -7 18 -14 21 -14 7z"/>
<path d="M4675 2259 c-4 -6 -5 -12 -2 -15 2 -3 7 2 10 11 7 17 1 20 -8 4z"/>
<path d="M4710 1999 c0 -5 5 -7 10 -4 6 3 10 8 10 11 0 2 -4 4 -10 4 -5 0 -10
-5 -10 -11z"/>
<path d="M2798 1393 c7 -3 16 -2 19 1 4 3 -2 6 -13 5 -11 0 -14 -3 -6 -6z"/>
<path d="M1420 1356 c0 -2 8 -10 18 -17 15 -13 16 -12 3 4 -13 16 -21 21 -21
13z"/>
<path d="M2977 5299 c7 -7 15 -10 18 -7 3 3 -2 9 -12 12 -14 6 -15 5 -6 -5z"/>
<path d="M789 4423 c-13 -16 -12 -17 4 -4 9 7 17 15 17 17 0 8 -8 3 -21 -13z"/>
<path d="M593 4183 c4 -3 1 -13 -6 -22 -11 -14 -10 -14 5 -2 16 12 16 31 1 31
-4 0 -3 -3 0 -7z"/>
<path d="M345 3729 c-4 -6 -5 -12 -2 -15 2 -3 7 2 10 11 7 17 1 20 -8 4z"/>
<path d="M5006 1563 c-6 -14 -5 -15 5 -6 7 7 10 15 7 18 -3 3 -9 -2 -12 -12z"/>
<path d="M4491 847 c-8 -10 -7 -14 2 -14 8 0 14 6 14 14 0 7 -1 13 -2 13 -2 0
-8 -6 -14 -13z"/>
</g>
</svg>
