<?xml version="1.0" standalone="no"?>
<!DOCTYPE svg PUBLIC "-//W3C//DTD SVG 20010904//EN"
 "http://www.w3.org/TR/2001/REC-SVG-20010904/DTD/svg10.dtd">
<svg version="1.0" xmlns="http://www.w3.org/2000/svg"
 width="640.000000pt" height="640.000000pt" viewBox="0 0 640.000000 640.000000"
 preserveAspectRatio="xMidYMid meet">
<metadata>
Created by potrace 1.14, written by Peter Selinger 2001-2017
</metadata>
<g transform="translate(0.000000,640.000000) scale(0.100000,-0.100000)"
fill="#000000" stroke="none">
<path d="M0 3200 l0 -3200 3200 0 3200 0 0 3200 0 3200 -3200 0 -3200 0 0
-3200z m3268 3018 c7 -7 12 -24 12 -38 0 -33 -17 -50 -51 -50 -37 0 -62 35
-47 64 6 12 16 24 22 28 17 12 51 9 64 -4z m-85 -113 c26 1 41 -3 44 -12 3 -8
12 -12 19 -9 7 3 16 1 19 -4 3 -5 12 -7 20 -3 9 3 22 0 30 -7 8 -7 24 -10 35
-7 11 3 26 0 33 -6 6 -7 28 -12 47 -12 19 0 44 -7 54 -15 11 -8 16 -10 13 -3
-4 6 -3 14 3 18 5 3 10 0 11 -7 0 -7 4 -4 9 7 6 14 9 15 9 5 1 -9 -4 -21 -11
-28 -9 -9 -3 -12 28 -12 23 0 44 -3 48 -7 13 -13 36 -11 36 4 0 9 6 13 14 10
8 -3 17 -1 20 6 2 7 5 5 5 -5 1 -9 6 -20 13 -24 6 -4 8 -3 5 3 -4 6 0 14 9 17
10 4 13 2 8 -6 -5 -8 -2 -9 10 -5 14 5 17 3 13 -7 -5 -12 -1 -13 18 -6 16 6
27 6 31 -1 3 -6 19 -9 34 -5 33 6 42 -1 30 -24 -6 -12 -5 -17 5 -17 7 0 11 6
8 12 -2 7 3 15 11 18 10 4 13 1 9 -9 -3 -9 1 -14 12 -14 9 0 13 5 10 10 -11
18 3 11 31 -15 21 -19 29 -22 36 -13 6 10 8 10 8 0 0 -7 5 -10 10 -7 6 3 10 1
10 -4 0 -6 9 -11 20 -11 11 0 20 -5 20 -11 0 -7 10 -9 25 -7 14 3 25 2 25 -1
0 -3 21 -7 47 -9 26 -2 51 -8 54 -14 4 -6 14 -8 22 -5 10 4 17 -2 21 -16 5
-17 8 -19 15 -9 6 11 11 10 24 -3 12 -12 21 -13 35 -6 23 12 33 5 25 -17 -5
-11 -2 -14 11 -9 10 4 19 1 22 -8 3 -7 11 -12 19 -9 7 3 19 -2 27 -10 12 -11
18 -12 27 -3 10 9 12 8 9 -8 -2 -14 3 -20 17 -20 11 0 25 -6 32 -15 11 -13 12
-13 13 0 1 9 5 6 10 -7 10 -24 25 -30 35 -13 3 6 1 10 -6 10 -7 0 -10 2 -7 5
3 3 13 3 22 -1 15 -6 15 -7 0 -19 -20 -14 -12 -21 40 -29 47 -8 58 -14 50 -28
-4 -6 -2 -8 4 -4 6 3 13 2 17 -4 4 -6 10 -8 15 -5 9 5 36 -15 103 -77 16 -15
33 -25 38 -22 5 3 9 0 9 -6 0 -6 10 -8 24 -4 13 3 27 1 30 -5 4 -6 2 -11 -5
-11 -20 0 24 -29 44 -30 10 0 16 -4 12 -9 -3 -5 -1 -12 5 -16 6 -4 7 -12 3
-18 -5 -8 -2 -8 9 0 18 15 29 7 21 -15 -4 -9 -2 -13 4 -9 14 9 37 -19 27 -34
-5 -9 -1 -11 14 -7 13 4 23 0 26 -8 3 -8 13 -14 22 -14 13 0 14 -3 4 -15 -9
-10 -9 -15 -1 -15 6 0 21 -10 32 -21 17 -17 19 -23 8 -30 -12 -7 -11 -9 1 -10
8 -1 23 -1 33 0 9 1 17 -2 17 -7 0 -9 26 -41 88 -110 12 -14 22 -29 22 -33 0
-5 5 -9 11 -9 16 0 59 -48 59 -64 0 -8 7 -17 16 -20 9 -4 14 -13 10 -22 -4
-10 -2 -13 6 -8 8 5 9 1 4 -12 -4 -10 -4 -15 0 -11 4 3 16 -10 26 -30 22 -40
38 -58 53 -61 6 -2 10 -12 11 -25 2 -38 5 -43 14 -22 7 17 9 17 9 3 1 -10 7
-18 14 -18 9 0 9 -2 -1 -9 -11 -7 -11 -9 2 -14 8 -3 17 -1 20 6 2 7 5 -5 5
-25 1 -21 6 -38 12 -38 7 0 9 -10 7 -25 -4 -18 -1 -25 11 -25 25 -1 70 -72 64
-102 -3 -14 0 -29 6 -32 5 -4 8 -13 5 -21 -3 -8 1 -22 10 -31 9 -8 13 -21 9
-27 -4 -7 0 -8 12 -3 14 5 16 4 7 -7 -9 -10 -7 -18 6 -33 12 -13 17 -35 17
-71 0 -29 3 -53 6 -53 4 0 9 -18 13 -40 3 -22 11 -40 18 -40 6 0 9 -3 6 -6 -4
-3 7 -45 23 -92 75 -222 124 -489 135 -742 17 -376 -88 -901 -241 -1198 -39
-76 -47 -69 -11 10 44 98 68 167 60 179 -5 8 -3 9 6 4 10 -6 12 -1 7 24 -5 24
-4 30 6 25 9 -6 9 -4 1 7 -6 8 -14 21 -18 29 -3 8 -4 5 -2 -7 5 -27 -15 -46
-39 -36 -12 4 -16 3 -12 -4 4 -6 0 -14 -9 -17 -8 -3 -24 -27 -36 -53 -11 -27
-35 -81 -54 -121 -19 -40 -34 -76 -34 -80 0 -5 -11 -23 -25 -42 -14 -19 -25
-45 -25 -58 0 -13 -4 -21 -9 -18 -7 5 -19 -17 -25 -46 0 -4 -8 -13 -17 -20 -8
-7 -31 -35 -50 -61 -154 -216 -404 -488 -554 -601 -203 -154 -410 -277 -590
-351 -49 -20 -97 -43 -106 -51 -9 -8 -18 -12 -21 -9 -3 3 -25 -4 -49 -15 -51
-23 -33 -27 26 -5 59 21 69 18 39 -10 -14 -13 -30 -22 -35 -20 -4 3 -10 1 -14
-5 -3 -5 -1 -10 5 -10 7 0 7 -4 -1 -13 -7 -7 -22 -13 -33 -13 -12 1 -22 -6
-24 -16 -2 -11 3 -18 12 -18 10 0 13 6 10 17 -5 15 -4 15 4 4 9 -13 25 -10
104 17 51 18 98 32 103 32 26 -1 -55 -35 -206 -84 -158 -52 -352 -96 -487
-111 -62 -7 -64 -8 -192 -116 -71 -60 -133 -109 -138 -109 -4 0 -26 18 -47 41
-22 22 -76 71 -120 109 -69 58 -87 69 -130 75 -307 42 -511 99 -813 229 -233
100 -517 289 -731 486 -101 93 -251 258 -330 362 -257 339 -429 744 -492 1161
-37 239 -36 687 1 861 6 25 5 47 -2 59 -7 13 -7 17 0 13 6 -4 10 1 10 11 -1
10 2 33 6 51 5 20 4 32 -3 32 -5 0 -12 -10 -14 -22 -4 -20 -4 -19 -6 5 0 15 4
27 11 27 6 0 4 8 -6 19 -12 14 -14 21 -6 26 7 4 10 20 8 36 -3 16 -1 29 3 29
5 0 6 6 3 13 -3 8 0 27 7 43 6 16 13 40 15 54 8 66 16 89 39 110 23 22 35 47
17 36 -4 -2 -8 4 -8 15 0 10 3 19 7 19 4 0 11 15 15 32 3 18 15 51 24 73 10
22 26 60 37 85 10 25 26 53 36 63 12 12 15 25 11 42 -4 15 -2 25 5 25 6 0 11
7 11 16 0 8 4 13 9 10 5 -3 9 6 10 19 3 49 4 53 18 48 8 -3 13 2 13 16 0 12 6
21 15 21 8 0 15 7 15 15 0 8 5 15 10 15 6 0 10 6 9 13 -3 28 2 48 11 42 5 -3
15 3 21 14 7 11 19 17 27 13 10 -3 13 -1 8 6 -4 7 -1 12 6 13 9 0 9 2 2 5 -7
3 -9 14 -6 26 5 20 5 20 20 2 13 -18 14 -18 7 4 -4 13 -2 22 4 22 6 0 21 21
32 46 12 25 33 51 46 57 13 6 26 21 29 33 4 14 11 21 20 17 10 -4 12 0 7 13
-4 10 -2 15 4 11 5 -3 17 9 26 28 9 20 24 35 34 35 9 0 13 3 10 7 -4 3 5 17
19 30 14 12 22 28 19 33 -5 9 16 15 38 11 5 -1 6 2 3 7 -6 10 29 42 45 42 6 0
9 7 5 15 -3 9 0 15 10 15 8 0 17 7 20 15 4 8 10 12 15 9 5 -3 9 4 9 16 0 13 5
20 12 18 16 -6 39 17 36 34 -2 8 4 12 16 10 13 -3 17 1 13 12 -5 11 3 17 28
22 19 3 35 10 35 14 0 4 11 11 25 14 17 4 23 11 18 23 -4 11 -3 14 5 9 11 -6
73 29 80 47 2 4 12 7 23 7 10 0 19 2 19 4 0 2 3 12 7 22 5 13 3 15 -7 9 -8 -5
-11 -4 -7 2 3 5 20 9 37 8 20 -1 30 3 30 12 0 8 5 11 10 8 6 -3 13 1 16 9 3 9
15 16 25 16 10 0 19 5 19 10 0 6 7 10 15 10 8 0 15 4 15 10 0 5 18 13 40 16
22 4 43 11 46 16 4 6 -3 8 -17 4 -13 -3 -8 1 11 10 19 9 49 18 65 19 17 2 33
3 38 4 4 1 7 8 7 17 0 11 6 15 20 11 14 -4 20 0 20 11 0 12 3 13 12 4 9 -9 14
-8 22 4 7 8 26 16 44 16 18 1 36 6 39 11 4 6 0 8 -10 4 -10 -3 -17 -2 -17 4 0
6 13 9 29 7 18 -1 37 5 50 16 13 12 34 19 56 18 29 -1 35 2 35 18 0 11 6 20
13 21 6 0 19 2 27 4 57 14 62 14 56 0 -9 -25 2 -17 18 13 l15 27 1 -24 c0 -22
2 -23 13 -9 6 9 23 19 37 23 19 5 21 4 10 -4 -23 -16 -6 -13 49 9 28 11 57 17
64 14 7 -2 27 1 43 7 16 7 35 11 42 10 8 -1 19 3 26 9 19 15 94 20 99 6 2 -7
10 -4 21 7 10 9 24 17 32 17 8 0 14 3 14 8 0 4 11 8 25 8 14 1 25 -3 25 -10 0
-7 3 -6 9 2 4 7 18 14 29 15 12 1 22 5 22 9 0 4 17 8 38 8 20 0 44 4 52 10 8
5 19 5 25 0 5 -4 27 -7 48 -5z m-1278 -175 c0 -7 -6 -15 -12 -17 -8 -3 -13 4
-13 17 0 13 5 20 13 18 6 -3 12 -11 12 -18z m3253 -317 c5 -17 -26 -29 -40
-15 -6 6 -7 15 -3 22 9 14 37 9 43 -7z m739 -655 c22 -28 22 -49 2 -69 -26
-26 -59 -21 -78 13 -14 24 -14 28 3 47 21 23 58 28 73 9z m-5752 -798 c-5 -8
-11 -8 -17 -2 -6 6 -7 16 -3 22 5 8 11 8 17 2 6 -6 7 -16 3 -22z m235 -1204
c0 -8 -5 -18 -11 -22 -14 -8 -33 11 -25 25 10 16 36 13 36 -3z m-180 -196 c24
-24 25 -47 3 -72 -31 -35 -103 -12 -103 34 0 24 35 58 60 58 11 0 29 -9 40
-20z m270 -675 c0 -8 -9 -15 -20 -15 -11 0 -20 7 -20 15 0 8 9 15 20 15 11 0
20 -7 20 -15z m5131 -8 c-10 -9 -11 -8 -5 6 3 10 9 15 12 12 3 -3 0 -11 -7
-18z m-21 -47 c-6 -12 -14 -19 -17 -17 -2 3 1 15 7 27 6 12 14 19 17 17 2 -3
-1 -15 -7 -27z m-81 -142 c-19 -37 -98 -144 -116 -159 -14 -12 -15 -12 -7 2
13 24 128 179 132 179 1 0 -3 -10 -9 -22z m-179 -242 c0 -2 -8 -10 -17 -17
-16 -13 -17 -12 -4 4 13 16 21 21 21 13z m-100 -129 c0 -2 -15 -16 -32 -33
l-33 -29 29 33 c28 30 36 37 36 29z m-60 -70 c0 -2 -12 -14 -26 -28 l-27 -24
18 28 c14 22 35 36 35 24z m-140 -130 c0 -2 -15 -16 -32 -33 l-33 -29 29 33
c28 30 36 37 36 29z m-96 -91 c-10 -8 -45 -33 -76 -56 -32 -22 -58 -39 -58
-36 0 9 144 115 149 110 3 -2 -4 -11 -15 -18z m-163 -117 c-34 -28 -202 -131
-207 -127 -2 2 22 20 54 39 31 18 82 51 112 71 60 41 79 49 41 17z m-225 -138
c-7 -11 -137 -83 -142 -79 -2 3 130 83 144 87 2 1 1 -3 -2 -8z m-226 -121 c-8
-5 -19 -10 -25 -10 -5 0 -3 5 5 10 8 5 20 10 25 10 6 0 3 -5 -5 -10z"/>
<path d="M3156 5807 l-65 -54 -113 -6 c-140 -9 -211 -20 -358 -57 -263 -66
-576 -206 -809 -362 -333 -223 -518 -406 -724 -718 -154 -233 -268 -492 -333
-750 -143 -577 -71 -1193 202 -1719 117 -225 199 -338 421 -578 336 -362 835
-636 1348 -738 66 -13 172 -29 235 -35 l115 -12 78 -71 78 -70 47 45 c110 104
116 108 190 108 246 0 650 114 939 265 152 78 378 233 492 336 367 329 602
690 736 1133 178 590 145 1205 -94 1747 -51 116 -170 326 -253 446 -208 301
-542 584 -897 763 -158 79 -236 109 -433 169 -228 68 -279 79 -425 91 -70 6
-137 13 -148 15 -11 2 -48 27 -82 55 -34 27 -66 50 -72 50 -5 0 -39 -24 -75
-53z m170 -140 c49 -39 148 -119 218 -177 l127 -105 -283 -7 c-298 -6 -400
-18 -582 -63 -344 -87 -596 -222 -825 -440 -233 -223 -342 -452 -341 -720 0
-158 54 -333 141 -462 38 -57 256 -273 657 -650 160 -152 292 -279 292 -283 0
-5 -22 -27 -50 -50 l-50 -42 -39 34 c-379 326 -484 424 -478 449 3 11 -1 15
-17 12 -20 -4 -76 30 -76 45 0 18 72 83 86 78 9 -3 4 8 -12 29 -14 19 -30 35
-35 35 -5 0 -9 7 -9 15 0 8 -6 15 -14 15 -8 0 -18 9 -21 20 -3 11 -13 20 -21
20 -8 0 -14 6 -14 14 0 8 -9 17 -20 21 -11 3 -29 19 -41 36 -11 16 -25 26 -30
23 -6 -3 -9 0 -7 7 3 16 -118 143 -144 152 -29 10 -28 -5 2 -40 32 -36 31 -51
-8 -86 -31 -28 -61 -29 -88 -2 -24 24 -33 65 -14 65 6 0 20 16 31 35 12 19 25
32 30 29 6 -3 16 0 24 6 8 6 20 8 26 4 7 -4 9 -3 6 3 -9 15 -56 22 -64 10 -3
-5 -10 -3 -15 7 -5 9 -16 16 -23 16 -8 0 -15 6 -15 13 0 9 -2 9 -9 -1 -6 -10
-13 -11 -34 -1 -21 10 -30 9 -43 -2 -15 -12 -14 -15 12 -26 l29 -12 -35 -2
c-19 -1 -39 -1 -44 0 -5 1 -1 -11 8 -26 12 -20 7 -17 -20 12 -44 48 -95 154
-120 250 -19 76 -25 267 -11 365 10 69 -5 58 -34 -25 -61 -175 -40 -457 48
-644 41 -85 154 -249 230 -330 89 -97 464 -408 617 -513 6 -4 8 -10 4 -13 -9
-10 -216 72 -317 126 -146 78 -238 144 -344 248 -177 172 -284 363 -337 601
-4 19 -8 28 -9 19 -1 -17 -61 -25 -61 -8 0 5 -5 9 -11 9 -5 0 -8 -4 -4 -9 3
-5 1 -12 -5 -16 -6 -4 -8 -10 -5 -15 3 -5 1 -11 -4 -14 -16 -11 -24 28 -29
151 -5 139 5 214 50 352 98 308 340 621 663 861 121 89 185 127 367 215 227
109 479 189 677 214 79 10 83 12 266 165 50 41 95 75 100 75 6 1 51 -32 101
-72z m844 -396 c286 -74 505 -203 730 -430 234 -236 364 -459 427 -733 22 -97
23 -353 1 -418 l-15 -45 -7 67 c-6 53 -11 67 -27 71 -10 3 -19 1 -19 -4 0 -4
-6 -6 -14 -3 -11 4 -19 -10 -32 -53 -9 -32 -25 -87 -36 -123 -77 -260 -296
-512 -593 -683 -73 -42 -113 -59 -284 -127 -70 -27 -57 -10 51 66 92 64 406
342 491 433 133 144 215 281 271 454 55 168 59 370 11 514 -25 75 -55 128 -41
73 3 -14 11 -67 17 -118 12 -113 1 -235 -34 -344 -26 -82 -85 -196 -114 -219
-19 -16 -19 -15 23 51 12 20 33 68 48 108 27 75 27 73 -16 76 -7 1 -12 -7 -10
-16 2 -12 -2 -16 -12 -12 -8 3 -25 0 -38 -7 -13 -7 -29 -12 -35 -11 -7 2 -13
-2 -13 -8 0 -7 -8 -9 -20 -5 -15 5 -20 2 -20 -10 0 -13 -6 -16 -22 -12 -14 4
-27 -1 -40 -15 -10 -12 -18 -17 -18 -12 0 11 -63 -87 -85 -131 -8 -16 -14 -25
-15 -20 0 6 -9 -3 -20 -20 -12 -19 -16 -33 -10 -39 16 -16 12 -25 -22 -42
l-33 -17 25 -9 c13 -5 30 -6 37 -4 7 3 13 -1 13 -9 0 -7 8 -21 17 -30 16 -16
12 -22 -58 -86 -41 -38 -101 -96 -134 -128 -33 -32 -145 -134 -250 -227 -300
-267 -631 -569 -876 -800 -260 -247 -315 -292 -421 -345 -138 -70 -230 -91
-419 -96 -192 -6 -262 4 -450 67 -246 81 -426 204 -563 383 -112 147 -196 378
-196 544 0 45 3 88 6 97 8 20 24 21 24 1 0 -8 12 -26 28 -40 69 -61 100 -85
111 -85 6 0 11 -7 11 -15 0 -8 7 -15 14 -15 23 0 73 -60 92 -110 83 -222 226
-396 405 -494 154 -84 323 -121 522 -114 152 6 260 33 382 96 117 61 181 110
404 311 101 91 214 193 250 226 93 83 528 483 751 690 309 287 385 375 451
521 40 88 58 169 65 299 14 254 -74 479 -264 677 -156 162 -352 262 -585 299
-119 18 -348 7 -467 -24 -229 -59 -460 -208 -613 -394 -76 -93 -103 -137 -142
-234 -28 -68 -33 -75 -43 -58 -7 10 -12 26 -12 35 0 8 -7 22 -15 30 -8 9 -15
21 -14 27 0 9 2 8 6 0 2 -7 9 -13 15 -13 6 0 5 6 -2 15 -12 14 -15 14 -31 -1
-32 -28 -31 -11 3 67 73 170 240 370 408 488 323 227 742 313 1090 222z
m-1115 -107 c-28 -20 -131 -76 -231 -124 -201 -98 -300 -166 -411 -284 -228
-240 -280 -544 -140 -833 54 -114 130 -197 423 -468 137 -126 282 -261 322
-300 l72 -70 -59 -47 c-32 -27 -62 -48 -66 -48 -9 0 -253 229 -467 439 -103
101 -164 168 -157 172 8 5 5 13 -10 25 -11 10 -21 23 -21 29 0 6 -14 24 -30
40 -34 33 -34 47 1 55 31 7 35 50 8 79 -11 11 -17 21 -14 21 4 0 -2 12 -13 28
-18 25 -57 132 -64 176 -3 20 -18 24 -113 29 -70 5 -75 1 -76 -52 l-1 -46 -13
35 c-19 49 -19 234 1 328 20 97 62 208 111 291 81 138 259 311 410 400 151 89
372 156 528 160 l60 1 -50 -36z m834 -234 c359 -45 617 -308 638 -649 11 -193
-41 -346 -169 -497 -40 -47 -170 -172 -288 -277 -205 -181 -449 -404 -645
-587 -538 -503 -574 -531 -735 -582 -105 -32 -293 -33 -395 0 -124 39 -214
104 -149 108 10 1 35 7 54 15 19 7 38 12 43 11 13 -4 7 7 -15 28 -27 25 -20
25 67 0 143 -42 302 -27 437 41 76 38 110 68 553 478 28 26 187 172 355 326
399 364 525 492 577 580 102 174 116 380 36 542 -41 85 -154 196 -237 233
-184 84 -381 80 -602 -10 -166 -68 -347 -206 -408 -312 -16 -27 -33 -48 -38
-48 -7 0 -6 5 1 14 9 11 8 14 -6 12 -13 -1 -18 6 -18 26 l1 26 -28 -19 c-15
-11 -32 -28 -38 -37 -15 -26 -12 -9 6 34 51 121 196 281 341 375 141 91 266
139 428 165 103 16 133 16 234 4z m493 -57 c22 -20 23 -41 1 -65 -20 -22 -42
-23 -71 -2 -27 19 -28 38 -2 64 24 24 47 25 72 3z m-1741 -210 c-102 -178
-128 -282 -118 -486 4 -85 14 -153 32 -225 15 -57 24 -106 20 -110 -10 -10
-71 63 -100 120 -62 118 -82 293 -50 442 17 79 92 240 127 273 26 25 130 84
136 78 2 -2 -19 -43 -47 -92z m1294 -191 c39 -10 84 -26 100 -36 17 -9 22 -15
13 -12 -9 3 -45 8 -80 12 -54 5 -61 4 -47 -7 24 -20 30 -47 15 -61 -11 -11 -9
-16 13 -31 l26 -19 -25 6 c-176 38 -424 0 -589 -91 -57 -31 -163 -112 -196
-148 -19 -21 -52 -15 -65 13 l-12 27 -24 -30 c-34 -43 -30 -10 5 44 66 99 203
216 326 279 151 76 372 99 540 54z m-1285 -12 c0 -5 -4 -10 -10 -10 -5 0 -10
5 -10 10 0 6 5 10 10 10 6 0 10 -4 10 -10z m938 -271 c38 -34 38 -36 2 -41
-14 -1 -34 -11 -44 -20 -23 -21 -26 -21 -46 -8 -13 9 -13 11 0 20 8 5 11 10 5
10 -5 0 -17 -5 -25 -10 -13 -8 -12 -11 5 -23 18 -14 18 -15 -10 -39 -27 -24
-75 -28 -75 -7 0 5 -5 9 -11 9 -8 0 -8 -5 1 -15 10 -12 10 -15 -4 -15 -9 0
-16 6 -16 13 0 8 -7 14 -15 14 -23 0 -18 -11 14 -30 19 -11 32 -14 36 -7 3 5
11 10 18 10 6 0 -19 -30 -55 -67 -37 -38 -84 -87 -105 -110 -42 -46 -65 -58
-39 -21 19 27 21 58 4 59 -7 0 -3 5 10 11 22 11 30 28 12 28 -5 0 -10 -5 -10
-11 0 -5 -4 -7 -10 -4 -5 3 -21 -6 -34 -20 -14 -15 -27 -26 -30 -26 -3 1 -5
-2 -3 -5 3 -7 -53 -37 -59 -31 -7 7 136 166 213 238 77 70 173 128 213 128 14
0 40 -13 58 -30z m415 -290 l38 -10 -20 -22 c-10 -12 -36 -41 -56 -64 -32 -36
-43 -43 -75 -43 -57 0 -162 -36 -221 -76 -29 -19 -88 -67 -131 -105 l-78 -71
-57 56 -58 57 40 36 c177 159 259 212 367 239 66 15 200 17 251 3z m-1028
-176 c56 -54 103 -103 104 -109 0 -6 -23 -32 -53 -58 l-54 -46 -106 101 c-58
56 -106 106 -106 112 0 16 82 97 98 97 8 0 60 -44 117 -97z m221 69 c-18 -16
-18 -16 -6 6 6 13 14 21 18 18 3 -4 -2 -14 -12 -24z m-944 -34 c-9 -9 -12 -7
-12 12 0 19 3 21 12 12 9 -9 9 -15 0 -24z m3280 -92 c84 -197 99 -440 43 -681
-25 -109 -40 -142 -49 -114 -3 8 -24 65 -47 127 -36 99 -40 118 -33 154 l9 41
24 -59 c26 -61 46 -90 55 -76 17 27 28 160 23 271 -6 138 -20 203 -73 331 -18
46 -34 96 -34 110 l1 25 27 -32 c15 -18 39 -61 54 -97z m-4552 94 c0 -10 -16
-54 -35 -98 -39 -89 -51 -138 -60 -237 -3 -38 -8 -95 -11 -125 -4 -47 13 -240
21 -240 13 0 35 14 35 21 0 19 24 36 35 25 8 -7 3 -38 -20 -110 -17 -56 -36
-117 -42 -136 l-10 -35 -26 80 c-41 130 -51 200 -50 360 0 127 4 165 26 246
40 152 137 329 137 249z m3785 -115 c-40 -42 -65 -62 -65 -52 0 36 117 153
128 127 1 -4 -27 -38 -63 -75z m-3120 55 c3 -5 -1 -10 -9 -10 -9 0 -16 5 -16
10 0 6 4 10 9 10 6 0 13 -4 16 -10z m-507 -35 c-3 -3 -9 2 -12 12 -6 14 -5 15
5 6 7 -7 10 -15 7 -18z m3737 8 c0 -6 -27 -31 -60 -56 -75 -56 -110 -93 -96
-102 6 -3 40 19 75 50 35 32 68 57 73 56 19 -2 4 -23 -60 -81 -64 -59 -70 -62
-93 -50 -13 7 -24 20 -23 29 0 9 36 47 80 84 43 38 79 73 79 79 0 5 6 8 13 6
6 -3 12 -9 12 -15z m-2987 -198 c-3 -3 -9 2 -12 12 -6 14 -5 15 5 6 7 -7 10
-15 7 -18z m1392 -168 c-33 -32 -63 -57 -67 -55 -5 1 -32 29 -62 61 l-55 58
59 59 59 60 64 -62 63 -63 -61 -58z m1425 163 c3 -5 1 -10 -4 -10 -6 0 -11 5
-11 10 0 6 2 10 4 10 3 0 8 -4 11 -10z m-2722 -74 c37 -34 67 -69 67 -76 0
-20 -31 -50 -51 -50 -10 0 -23 9 -29 20 -6 11 -17 20 -25 20 -29 0 -83 44 -93
76 -8 28 -7 33 14 45 13 7 24 16 24 21 0 21 30 3 93 -56z m-834 -255 c7 -27
27 -68 44 -92 l32 -43 1 -191 c1 -172 3 -199 27 -287 54 -196 113 -316 236
-474 190 -246 477 -423 791 -491 119 -25 439 -25 557 0 115 25 263 77 359 125
188 94 387 257 482 391 56 81 66 92 58 66 -5 -18 0 -20 41 -23 26 -1 49 -5 52
-8 11 -10 -21 -100 -56 -159 -20 -33 -78 -101 -128 -150 -155 -155 -369 -281
-610 -358 -181 -58 -265 -71 -480 -71 -207 0 -265 9 -436 65 -310 102 -630
346 -816 624 -92 137 -182 356 -214 520 -18 90 -18 388 0 470 18 85 33 135 41
135 3 0 12 -22 19 -49z m4187 -167 c22 -113 22 -308 -1 -417 -10 -48 -20 -85
-23 -82 -3 2 1 45 8 95 13 88 11 180 -6 410 -4 47 -4 82 0 79 3 -3 13 -42 22
-85z m-126 -413 c-17 -132 -135 -431 -170 -431 -5 0 11 39 35 88 83 163 129
350 137 547 2 45 3 38 6 -30 1 -49 -2 -128 -8 -174z m-101 79 c1 -82 -22 -260
-38 -300 -14 -36 -13 -9 4 111 8 58 15 149 16 204 2 115 17 102 18 -15z m-223
-48 c34 -22 17 -216 -31 -352 -64 -178 -143 -305 -276 -444 -200 -210 -479
-391 -771 -501 -51 -20 -100 -38 -108 -42 -8 -3 -18 -6 -21 -5 -3 0 -6 -5 -6
-12 0 -10 7 -10 29 2 16 8 32 11 35 8 4 -3 1 -6 -5 -6 -7 0 -12 -7 -12 -15 0
-8 9 -15 20 -15 25 0 25 -9 3 -26 -17 -12 -16 -13 7 -15 23 -1 23 -2 -5 -9
l-30 -8 36 -1 c20 0 60 4 89 9 29 6 55 8 57 6 6 -6 -159 -44 -252 -57 -74 -11
-85 -16 -145 -65 -36 -28 -108 -91 -160 -138 -52 -47 -100 -86 -107 -86 -7 0
-41 26 -75 58 -92 85 -200 177 -311 265 -53 43 -95 82 -92 88 4 5 86 9 188 9
202 0 240 7 277 48 14 16 32 31 40 35 9 3 3 6 -13 6 -55 2 -16 19 80 36 275
49 519 173 695 353 179 183 268 374 285 610 3 47 11 86 17 88 6 2 34 6 61 8
28 3 66 8 87 11 52 10 62 -14 54 -119 -15 -182 -59 -307 -169 -472 -106 -161
-249 -294 -435 -404 -40 -23 -71 -44 -69 -46 16 -16 243 98 387 194 133 89
328 275 404 386 112 163 179 346 201 546 9 82 14 90 41 72z m-900 -267 c18 18
34 20 34 4 0 -8 5 -7 15 1 24 20 30 4 29 -78 -1 -154 -53 -297 -161 -438 -78
-102 -145 -164 -178 -164 -34 0 -33 0 -94 -31 -30 -16 -56 -27 -57 -26 -2 2
37 43 87 92 178 176 274 368 296 592 4 43 9 68 11 55 3 -20 5 -20 18 -7z m894
-332 c0 -5 14 -17 30 -28 38 -25 38 -37 -2 -70 -18 -15 -53 -45 -76 -68 l-44
-40 -36 37 -37 36 22 21 c15 15 27 19 40 14 17 -6 16 -8 -4 -16 -28 -10 -29
-30 -5 -52 16 -15 20 -14 55 16 l39 32 -26 24 -25 23 26 39 c24 36 43 50 43
32z m-2686 -275 c9 -12 16 -26 16 -30 0 -16 -33 -38 -59 -38 -33 0 -51 16 -51
47 0 43 68 58 94 21z m1743 -544 c-3 -3 -12 -4 -19 -1 -8 3 -5 6 6 6 11 1 17
-2 13 -5z"/>
<path d="M3207 5563 c-3 -5 -2 -15 3 -22 10 -17 43 -6 38 12 -6 15 -34 22 -41
10z"/>
<path d="M3160 5501 c0 -12 29 -35 36 -28 11 10 -5 37 -21 37 -8 0 -15 -4 -15
-9z"/>
<path d="M3266 5494 c-4 -9 -4 -19 -1 -22 6 -6 35 18 35 29 0 16 -28 10 -34
-7z"/>
<path d="M1693 3743 c-21 -8 -15 -19 13 -21 22 -2 25 0 14 13 -7 8 -13 15 -14
14 0 0 -7 -3 -13 -6z"/>
<path d="M1486 3717 c3 -10 9 -15 12 -12 3 3 0 11 -7 18 -10 9 -11 8 -5 -6z"/>
<path d="M2159 3235 c14 -29 48 -58 60 -50 6 3 11 1 11 -6 0 -7 3 -9 7 -6 8 8
-29 45 -49 49 -7 2 -19 10 -26 18 -11 13 -12 12 -3 -5z"/>
<path d="M4630 3545 c-11 -13 -10 -14 4 -9 9 3 16 10 16 15 0 13 -6 11 -20 -6z"/>
<path d="M2018 4183 c6 -2 18 -2 25 0 6 3 1 5 -13 5 -14 0 -19 -2 -12 -5z"/>
<path d="M2105 4180 c27 -12 35 -12 35 0 0 6 -12 10 -27 9 -25 0 -26 -1 -8 -9z"/>
<path d="M2310 3740 c0 -5 7 -7 15 -4 8 4 15 8 15 10 0 2 -7 4 -15 4 -8 0 -15
-4 -15 -10z"/>
<path d="M3401 4131 c-21 -16 -22 -19 -6 -25 10 -4 23 -1 29 5 8 9 6 10 -9 5
-20 -6 -20 -6 -1 9 11 8 18 17 15 19 -2 3 -15 -3 -28 -13z"/>
<path d="M3447 4103 c-10 -10 -8 -23 4 -23 5 0 8 4 5 9 -4 5 0 12 6 14 7 3 8
6 2 6 -6 1 -14 -2 -17 -6z"/>
<path d="M3415 4080 c3 -5 8 -10 11 -10 2 0 4 5 4 10 0 6 -5 10 -11 10 -5 0
-7 -4 -4 -10z"/>
<path d="M3317 4043 c5 -12 2 -15 -10 -10 -18 7 -43 -27 -38 -52 1 -8 -2 -10
-10 -6 -7 5 -10 3 -7 -5 2 -7 12 -14 21 -16 13 -2 16 3 11 22 -5 18 -2 24 9
24 9 0 21 8 27 18 8 12 13 13 16 4 6 -13 24 -7 24 9 0 6 -4 8 -9 5 -5 -3 -11
1 -15 9 -3 8 -10 15 -15 15 -6 0 -7 -8 -4 -17z"/>
<path d="M3307 3996 c-22 -17 -22 -26 2 -26 10 0 21 7 24 15 8 20 -5 26 -26
11z"/>
<path d="M3231 1056 c-12 -14 -5 -26 16 -26 15 0 18 26 4 34 -5 3 -14 0 -20
-8z"/>
<path d="M4852 1958 c-18 -18 -14 -33 13 -48 22 -12 28 -12 42 3 16 15 15 18
-2 37 -21 23 -36 25 -53 8z"/>
<path d="M5670 2440 c0 -5 5 -10 10 -10 6 0 10 5 10 10 0 6 -4 10 -10 10 -5 0
-10 -4 -10 -10z"/>
<path d="M3970 840 c8 -5 22 -9 30 -9 10 0 8 3 -5 9 -27 12 -43 12 -25 0z"/>
<path d="M3970 760 c-12 -8 -11 -10 8 -10 12 0 22 5 22 10 0 13 -11 13 -30 0z"/>
<path d="M3202 598 c-29 -29 -3 -84 35 -76 20 4 39 48 30 72 -7 19 -48 21 -65
4z m36 -31 c2 -12 -3 -17 -17 -17 -12 0 -21 6 -21 13 0 31 32 34 38 4z"/>
</g>
</svg>
