<?xml version="1.0" standalone="no"?>
<!DOCTYPE svg PUBLIC "-//W3C//DTD SVG 20010904//EN"
 "http://www.w3.org/TR/2001/REC-SVG-20010904/DTD/svg10.dtd">
<svg version="1.0" xmlns="http://www.w3.org/2000/svg"
 width="524.000000pt" height="524.000000pt" viewBox="0 0 524.000000 524.000000"
 preserveAspectRatio="xMidYMid meet">
<metadata>
Created by potrace 1.14, written by Peter Selinger 2001-2017
</metadata>
<g transform="translate(0.000000,524.000000) scale(0.100000,-0.100000)"
fill="#000000" stroke="none">
<path d="M2567 5224 c-1 -1 -48 -4 -105 -8 -57 -3 -108 -9 -114 -12 -7 -4 -8
-2 -4 4 4 7 2 12 -3 12 -6 0 -11 -4 -11 -9 0 -9 -78 -22 -142 -25 -21 0 -38
-4 -38 -7 0 -8 -65 -23 -102 -23 -14 -1 -24 -4 -22 -8 4 -6 -70 -24 -93 -21
-7 0 -11 -3 -8 -7 6 -10 -54 -22 -68 -13 -6 3 -7 1 -3 -5 7 -11 3 -13 -36 -16
-7 -1 -16 -5 -19 -9 -4 -5 -18 -10 -32 -10 -14 -1 -23 -5 -21 -8 5 -9 -68 -29
-79 -22 -6 3 -7 1 -4 -4 8 -13 -20 -26 -35 -16 -6 3 -8 2 -5 -4 6 -9 -59 -39
-75 -35 -5 1 -8 -3 -8 -8 0 -6 -5 -10 -12 -10 -6 0 -19 -7 -29 -16 -9 -8 -26
-16 -38 -17 -11 -1 -21 -5 -21 -9 0 -11 -56 -38 -64 -31 -3 4 -6 1 -6 -5 0 -6
-22 -23 -50 -39 -27 -15 -50 -31 -50 -35 0 -5 -7 -8 -15 -8 -8 0 -15 -4 -15
-10 0 -5 -7 -10 -15 -10 -8 0 -15 -4 -15 -8 0 -10 -56 -43 -64 -37 -3 3 -4 2
-2 -1 4 -5 -31 -37 -144 -129 -62 -51 -292 -288 -347 -357 -34 -42 -63 -75
-66 -72 -2 2 -10 -3 -18 -13 -12 -15 -12 -16 1 -9 8 4 4 -1 -9 -12 -14 -11
-25 -26 -27 -34 -3 -21 -55 -98 -66 -98 -5 0 -7 -4 -4 -8 3 -5 -4 -18 -14 -30
-11 -12 -20 -25 -20 -30 0 -5 -24 -51 -54 -103 -29 -52 -59 -111 -65 -132 -8
-22 -17 -34 -23 -31 -7 4 -8 2 -4 -5 4 -6 -1 -28 -11 -49 -11 -20 -30 -67 -43
-104 -13 -38 -27 -68 -32 -68 -4 0 -5 -7 -2 -15 3 -8 2 -20 -2 -27 -5 -7 -9
-17 -11 -23 -1 -5 -11 -44 -21 -85 -18 -66 -43 -177 -48 -205 -1 -5 -2 -23 -3
-40 -1 -22 -4 -26 -10 -16 -6 10 -8 0 -4 -29 4 -24 2 -41 -3 -38 -5 4 -9 -22
-10 -55 -2 -93 -7 -151 -14 -162 -6 -9 -6 -31 0 -37 6 -8 4 -108 -2 -108 -4 0
-3 -11 2 -24 6 -17 5 -26 -2 -28 -7 -3 -8 -9 -3 -19 13 -20 15 -38 4 -45 -5
-3 -6 -11 -2 -17 13 -21 18 -96 9 -135 -3 -13 -1 -20 5 -17 10 7 11 -1 13 -80
0 -27 4 -52 7 -55 4 -3 9 -21 12 -40 3 -19 10 -59 16 -89 6 -29 8 -58 4 -64
-3 -6 -1 -7 5 -3 6 4 10 -1 10 -11 -1 -19 88 -289 116 -355 9 -21 17 -41 18
-45 1 -5 19 -44 41 -88 22 -44 40 -86 40 -93 0 -6 2 -10 5 -7 8 7 51 -79 44
-89 -3 -5 1 -6 8 -1 10 6 12 4 7 -9 -4 -10 -3 -15 3 -11 6 3 10 1 10 -4 0 -6
0 -13 0 -16 0 -3 9 -14 20 -25 12 -12 18 -26 14 -32 -4 -6 -3 -9 2 -6 5 4 25
-17 44 -45 174 -261 332 -420 675 -683 37 -28 189 -117 282 -164 51 -26 89
-51 85 -55 -4 -5 -2 -5 5 -1 10 5 57 -12 143 -53 8 -4 41 -15 72 -26 31 -10
54 -23 51 -28 -3 -6 -1 -7 5 -3 14 8 64 -3 57 -14 -2 -4 7 -5 22 -2 14 3 23 1
20 -4 -3 -5 11 -10 31 -12 19 -1 41 -7 49 -13 7 -6 13 -9 13 -6 0 3 17 1 38
-4 115 -29 214 -46 306 -55 27 -2 56 -10 65 -17 10 -8 13 -8 8 0 -5 8 5 10 35
6 94 -10 356 -3 431 13 12 2 38 7 57 10 19 3 59 9 89 14 29 6 57 8 61 5 5 -3
10 -1 12 5 1 5 24 11 49 12 26 2 45 7 41 12 -3 5 7 7 22 4 15 -3 24 -3 21 0
-8 9 146 53 158 45 5 -3 7 -1 4 4 -6 10 71 38 84 31 3 -2 13 5 23 15 15 15 29
19 52 16 4 0 10 3 13 8 6 8 261 137 271 137 3 0 11 5 17 12 7 7 38 27 68 44
30 17 57 36 60 41 4 5 11 7 16 4 5 -4 9 -2 9 3 0 5 18 21 40 36 22 14 40 25
40 23 0 -2 19 13 42 35 23 21 43 36 45 34 4 -3 17 8 123 109 29 28 58 50 64
50 6 1 10 7 8 14 -1 7 2 10 8 6 5 -3 15 5 22 19 6 14 17 26 24 26 7 0 16 5 20
12 5 7 2 8 -7 3 -8 -5 -3 4 10 18 13 15 28 24 34 20 6 -3 7 -1 4 5 -4 5 6 21
22 35 17 14 28 27 26 29 -2 2 15 25 39 50 24 26 42 49 40 51 -2 2 9 17 25 34
16 18 27 34 24 37 -3 2 5 10 17 16 12 6 19 14 16 17 -7 8 52 93 65 93 6 0 7 5
4 10 -3 6 3 23 14 39 12 16 21 34 21 41 0 6 5 8 10 5 6 -3 10 2 10 13 0 10 9
28 19 39 11 12 17 24 14 27 -4 3 -1 6 5 6 6 0 9 6 6 14 -3 8 3 23 14 34 11 11
18 23 15 26 -4 3 -1 6 6 6 7 0 9 5 6 10 -4 6 -2 16 3 23 5 7 17 33 27 59 10
27 22 48 27 48 5 0 6 5 3 10 -3 6 -2 10 3 10 6 0 8 10 4 22 -3 13 -1 19 5 15
6 -4 11 -1 10 6 -1 34 4 48 15 41 6 -4 8 -3 5 3 -8 13 14 84 24 78 4 -3 5 4 2
15 -3 11 -1 20 5 20 6 0 8 10 4 22 -3 14 -2 19 6 14 8 -5 11 -1 10 11 -4 27
13 104 21 99 4 -3 5 9 3 26 -3 21 -1 29 7 24 6 -4 9 -2 5 7 -2 7 0 35 6 60 5
26 12 64 15 85 3 20 7 51 10 67 17 111 24 502 11 600 -2 22 -8 65 -11 95 -4
30 -18 110 -31 178 -13 68 -21 128 -18 134 4 6 3 8 -3 5 -12 -8 -26 50 -16 66
3 6 1 7 -5 3 -7 -4 -12 -1 -12 7 0 8 -12 49 -26 91 -14 42 -22 81 -18 88 4 6
3 8 -3 5 -12 -8 -26 20 -17 34 3 5 1 9 -3 9 -12 0 -34 61 -26 73 3 6 1 7 -4 4
-13 -8 -26 20 -16 35 4 7 1 8 -7 3 -8 -5 -11 -3 -8 6 3 8 -2 20 -9 28 -8 7
-11 21 -8 29 3 9 3 13 -1 10 -7 -8 -77 118 -77 139 0 7 -4 10 -9 7 -7 -5 -12
10 -9 29 0 4 -3 7 -8 7 -11 0 -94 130 -94 147 0 7 -4 10 -8 8 -6 -4 -21 21
-17 28 1 1 -13 17 -31 34 -19 19 -29 38 -25 44 4 7 3 9 -3 6 -10 -6 -53 44
-53 61 0 4 -14 18 -30 31 -17 12 -28 26 -25 32 4 5 2 9 -4 9 -14 0 -107 101
-103 112 1 5 -2 7 -7 4 -11 -7 -33 19 -23 28 4 4 2 6 -3 4 -6 -1 -26 9 -44 25
-18 15 -30 27 -26 27 4 0 0 7 -9 15 -8 8 -19 15 -25 15 -6 0 -20 13 -32 30
-12 16 -25 27 -29 25 -4 -2 -29 16 -55 41 -26 25 -44 40 -40 34 4 -7 -6 -2
-24 11 -30 22 -43 38 -19 23 7 -4 8 -3 4 5 -4 6 -11 9 -15 6 -5 -2 -20 6 -34
19 -14 13 -29 21 -32 17 -4 -3 -18 8 -32 24 -14 17 -22 23 -18 15 3 -8 -1 -6
-9 4 -9 11 -16 16 -16 12 0 -4 -16 2 -35 14 -19 12 -48 28 -65 36 -16 9 -30
20 -30 25 0 6 -4 8 -9 5 -9 -6 -122 51 -132 67 -3 5 -8 8 -10 6 -7 -4 -49 12
-49 20 0 4 -10 7 -22 8 -34 3 -78 24 -72 35 4 6 -2 7 -16 3 -14 -5 -20 -3 -16
3 4 6 -2 8 -16 4 -13 -3 -19 -1 -15 5 5 7 -1 9 -15 5 -13 -3 -19 -1 -15 5 5 7
-1 9 -15 5 -14 -3 -19 -1 -14 6 5 8 1 10 -10 5 -11 -4 -15 -2 -11 4 4 6 -3 8
-20 5 -17 -3 -24 -1 -19 6 4 6 -2 8 -16 4 -13 -3 -19 -1 -15 5 4 6 -4 8 -20 5
-17 -3 -24 -1 -19 6 4 6 -2 8 -16 4 -11 -3 -19 -1 -16 4 4 5 -12 9 -35 10 -22
0 -42 5 -44 10 -2 6 -19 9 -39 8 -19 -2 -32 0 -30 5 3 4 -6 6 -21 3 -14 -3
-23 -1 -20 4 3 5 -12 8 -34 6 -23 -3 -39 0 -39 7 0 6 -7 8 -15 5 -8 -4 -22 -1
-30 6 -8 6 -20 8 -27 4 -18 -11 -81 -4 -90 9 -6 9 -8 9 -8 0 0 -7 -11 -9 -30
-7 -27 5 -199 11 -203 8z m63 -367 c0 9 156 5 180 -4 8 -3 30 -5 48 -4 40 3
134 -19 144 -34 5 -6 8 -5 8 3 0 9 7 11 19 7 11 -3 28 -8 38 -10 77 -16 240
-67 353 -112 62 -24 259 -122 270 -133 3 -3 27 -19 54 -34 62 -36 233 -166
305 -232 123 -111 206 -200 291 -314 14 -18 35 -44 47 -59 22 -25 27 -36 24
-54 -1 -5 2 -6 7 -3 12 7 75 -91 67 -103 -3 -5 0 -13 6 -17 8 -5 10 -2 5 7 -4
8 2 3 13 -11 11 -14 21 -30 21 -37 0 -6 3 -13 8 -15 15 -6 43 -68 36 -80 -4
-6 -3 -8 3 -5 13 8 26 -20 16 -36 -3 -7 -2 -9 2 -4 11 9 37 -51 28 -66 -3 -5
-1 -7 5 -3 9 5 36 -52 37 -79 0 -5 6 -16 13 -24 7 -7 11 -20 8 -28 -4 -9 -2
-11 6 -7 8 5 9 -1 4 -20 -5 -20 -4 -26 5 -20 9 5 10 2 6 -9 -3 -10 -2 -17 3
-17 9 0 32 -71 29 -87 -1 -4 3 -21 10 -37 6 -16 9 -36 7 -43 -3 -8 -1 -11 4
-8 10 6 15 -32 12 -83 0 -12 3 -20 7 -17 5 2 11 -7 14 -20 2 -14 0 -28 -4 -31
-5 -3 -9 -10 -9 -15 0 -6 5 -7 11 -3 8 5 10 -1 5 -19 -3 -15 -1 -29 5 -33 7
-4 9 -24 5 -50 -4 -33 -2 -43 7 -37 8 5 8 2 -1 -9 -8 -11 -9 -17 -2 -20 10 -3
14 -248 5 -338 -1 -19 -4 -54 -6 -77 -2 -24 -5 -43 -8 -43 -4 0 -7 -23 -7 -50
-1 -28 -7 -57 -14 -65 -6 -8 -9 -19 -5 -24 12 -20 -83 -333 -98 -324 -6 3 -7
1 -3 -5 12 -20 -4 -58 -25 -59 -14 -1 -19 3 -15 12 3 8 0 17 -5 21 -7 4 -7 10
0 17 6 6 11 18 11 27 0 12 -2 12 -9 1 -6 -9 -8 -5 -8 14 0 19 2 23 8 14 7 -11
9 -10 9 4 0 9 -5 17 -11 17 -6 0 -9 14 -8 33 2 18 0 38 -5 45 -4 7 -4 26 -1
43 5 20 3 29 -3 25 -5 -3 -12 5 -14 19 -3 13 -1 22 3 19 5 -3 9 0 9 5 0 6 -5
11 -11 11 -7 0 -9 10 -5 26 5 17 3 23 -4 19 -7 -5 -9 2 -4 21 5 21 4 25 -6 19
-10 -6 -12 -3 -8 13 4 13 2 20 -3 16 -6 -3 -7 6 -4 23 5 21 4 24 -4 13 -9 -13
-11 -12 -12 5 -1 11 -1 28 -1 38 1 11 -2 15 -9 11 -8 -4 -9 1 -4 16 5 15 4 20
-4 16 -6 -4 -11 -5 -11 -2 0 2 -3 13 -6 23 -5 15 -4 15 5 3 6 -8 11 -10 11 -4
0 5 -7 19 -16 30 -8 10 -12 13 -8 5 5 -10 3 -12 -5 -7 -7 5 -10 14 -7 22 3 8
1 14 -5 14 -6 0 -8 7 -5 15 3 9 -1 18 -9 21 -14 6 -31 41 -27 57 1 5 -2 6 -8
2 -9 -5 -12 1 -9 21 0 3 -8 12 -18 21 -11 9 -12 12 -3 8 8 -4 6 1 -4 9 -11 9
-17 16 -13 16 3 0 -5 11 -19 25 -15 15 -22 30 -18 38 4 6 4 9 -1 5 -9 -8 -76
72 -69 83 2 4 -4 13 -14 20 -16 13 -16 12 -3 -6 9 -12 5 -11 -11 5 -14 14 -24
26 -23 28 2 2 -23 28 -55 57 -32 29 -56 56 -52 59 3 3 -1 6 -9 6 -17 1 -69 45
-69 59 0 5 -5 13 -12 17 -7 5 -8 3 -3 -5 6 -10 3 -11 -13 -2 -12 6 -24 17 -28
24 -5 7 0 6 12 -3 18 -14 18 -14 5 3 -8 9 -16 15 -19 12 -9 -9 -81 38 -75 49
3 6 3 8 -2 4 -8 -8 -86 28 -96 44 -3 5 -9 9 -13 9 -21 -3 -36 1 -48 12 -7 6
-17 12 -23 12 -11 1 -162 35 -185 42 -44 15 -317 0 -335 -18 -5 -5 -1 -9 14
-9 44 0 216 -81 336 -158 157 -101 356 -293 440 -426 10 -17 22 -33 26 -36 3
-3 8 -10 10 -15 2 -6 24 -43 48 -82 23 -40 44 -84 45 -97 0 -13 4 -23 7 -21
10 7 72 -173 64 -186 -6 -8 -4 -10 4 -4 9 5 12 0 10 -16 -2 -13 0 -30 5 -37 4
-7 5 -20 2 -28 -4 -10 -2 -12 6 -8 7 5 9 -1 6 -20 -3 -14 -2 -26 2 -26 13 0
17 -59 6 -71 -8 -9 -8 -10 0 -6 7 4 11 -7 12 -30 1 -20 4 -38 6 -41 3 -2 1
-13 -4 -23 -6 -10 -6 -20 -1 -23 20 -13 -10 -292 -42 -396 -49 -159 -144 -359
-162 -342 -5 4 -5 2 -1 -5 4 -7 -2 -21 -14 -33 -11 -11 -18 -20 -15 -20 10 0
-54 -88 -73 -102 -10 -7 -21 -21 -25 -31 -4 -11 -12 -15 -18 -11 -8 4 -9 3 -5
-4 4 -7 -3 -16 -17 -21 -14 -6 -29 -16 -33 -23 -6 -10 -3 -10 12 1 10 8 -1 -4
-26 -27 -24 -22 -48 -39 -51 -36 -4 2 -11 -1 -15 -7 -5 -8 -2 -10 7 -5 8 4 1
-4 -15 -18 -17 -14 -34 -22 -39 -19 -6 3 -7 2 -4 -4 5 -8 -47 -47 -63 -48 -3
0 -15 -9 -27 -21 -33 -30 -103 -65 -115 -57 -7 4 -8 1 -3 -7 6 -10 4 -12 -8
-7 -10 3 -17 2 -17 -4 0 -5 -10 -13 -22 -18 -13 -5 -54 -23 -92 -40 -38 -18
-82 -33 -97 -34 -16 -1 -29 -5 -29 -8 0 -11 -154 -52 -197 -53 -22 -1 -36 -4
-30 -8 7 -4 -1 -8 -18 -9 -16 0 -39 -2 -50 -5 -11 -2 -42 -7 -70 -10 -27 -4
-53 -8 -57 -10 -4 -3 -9 0 -13 6 -3 5 -12 10 -18 10 -7 0 -6 -4 3 -11 11 -7
-13 -8 -80 -4 -66 4 -90 2 -80 -5 9 -6 10 -10 3 -10 -6 0 -15 5 -18 10 -3 6
-14 10 -23 10 -15 0 -15 -2 -2 -10 9 -6 10 -10 3 -10 -6 0 -15 5 -18 10 -9 15
-27 12 -19 -3 6 -9 4 -9 -7 1 -14 13 -33 17 -26 4 3 -4 -19 -5 -49 -4 -30 2
-54 8 -54 13 0 5 -9 9 -21 9 -11 0 -17 -4 -14 -10 6 -9 -3 -8 -42 6 -10 4 -33
6 -52 5 -18 -2 -31 1 -28 6 3 5 -10 7 -29 5 -21 -3 -34 0 -34 7 0 7 -5 9 -11
5 -6 -3 -15 0 -20 7 -5 9 -9 10 -9 2 0 -6 -9 -9 -21 -6 -16 4 -18 8 -7 14 8 6
0 6 -19 3 -18 -4 -33 -2 -33 3 0 5 -10 9 -22 10 -35 3 -98 25 -98 35 0 5 -10
6 -21 3 -14 -5 -19 -4 -15 4 4 6 1 9 -7 5 -8 -3 -21 1 -28 9 -8 7 -20 12 -28
9 -8 -3 -11 0 -7 6 4 6 -2 8 -16 4 -14 -3 -19 -1 -14 6 5 8 2 10 -8 6 -9 -3
-16 -2 -16 3 0 5 -12 10 -27 11 -15 1 -32 7 -38 13 -7 7 -4 8 10 3 11 -4 17
-3 12 1 -4 5 -15 9 -25 10 -30 2 -82 27 -76 36 3 5 -3 6 -12 2 -12 -4 -15 -3
-10 5 5 8 2 10 -8 6 -9 -4 -18 1 -22 10 -3 9 -10 13 -15 10 -12 -7 -51 21 -41
31 4 5 1 5 -7 0 -9 -5 -20 0 -33 16 -11 13 -16 18 -12 10 10 -20 -52 17 -89
54 -17 17 -27 23 -23 15 5 -8 -2 -4 -15 10 -13 14 -20 19 -15 10 4 -8 -6 1
-24 20 -18 19 -29 29 -25 21 5 -9 -1 -8 -19 4 -14 9 -23 22 -19 28 3 5 2 7 -4
4 -5 -3 -32 14 -59 38 -27 25 -53 45 -57 45 -5 0 -5 5 -2 10 3 6 1 10 -6 10
-18 0 -92 75 -192 195 -123 147 -126 151 -107 141 8 -4 6 1 -6 11 -30 26 -65
79 -57 87 3 3 1 6 -5 6 -10 0 -40 46 -44 67 0 5 -8 13 -16 19 -9 7 -12 16 -7
24 5 8 4 11 -2 7 -11 -7 -69 105 -115 223 -16 41 -33 84 -38 95 -5 11 -23 66
-40 123 -16 57 -33 108 -36 114 -5 7 -2 8 7 3 12 -8 12 -6 0 8 -8 10 -15 32
-16 50 -2 18 -7 43 -13 57 -5 14 -6 26 -1 28 5 2 9 8 9 13 0 6 -5 7 -11 3 -7
-4 -10 4 -9 22 2 26 2 39 -1 47 -7 21 -14 85 -8 82 9 -6 6 15 -5 33 -14 24 -3
410 16 522 10 58 20 119 22 135 2 17 17 71 32 120 14 50 29 100 32 113 2 13
11 26 18 29 7 2 10 11 7 19 -3 8 0 14 7 14 6 0 8 5 5 10 -9 15 4 30 20 23 12
-4 15 -26 15 -102 0 -53 4 -111 9 -129 6 -20 6 -30 0 -27 -5 4 -9 1 -9 -4 0
-6 5 -11 11 -11 7 0 10 -12 7 -29 -3 -18 0 -28 5 -24 6 4 8 -3 5 -15 -4 -14
-2 -20 4 -16 7 5 9 -2 6 -19 -3 -15 -1 -24 3 -21 5 3 9 -5 9 -18 0 -13 6 -30
12 -37 11 -11 10 -12 -2 -6 -13 8 -13 6 -2 -8 8 -9 10 -22 6 -28 -4 -8 -3 -9
4 -5 11 7 16 -7 15 -41 -1 -7 3 -10 8 -7 5 3 9 0 9 -6 0 -10 49 -113 105 -220
10 -19 37 -59 59 -89 23 -29 48 -63 56 -75 33 -47 210 -217 275 -264 112 -80
264 -148 370 -167 17 -2 41 -7 55 -10 36 -8 248 -12 295 -5 l40 6 -102 49
c-58 27 -100 52 -96 58 3 6 1 7 -5 3 -15 -9 -55 18 -44 29 4 5 2 5 -4 2 -13
-7 -64 14 -64 26 0 5 5 5 12 1 7 -4 8 -3 4 4 -4 6 -14 8 -23 5 -12 -5 -14 -3
-8 7 5 9 4 11 -3 6 -7 -4 -23 4 -37 18 -14 15 -30 26 -35 26 -17 0 -180 162
-173 173 3 5 2 7 -4 4 -9 -6 -65 53 -73 78 -2 6 -11 17 -21 25 -26 24 -95 125
-79 116 8 -4 6 1 -6 11 -27 24 -66 88 -57 96 3 4 1 7 -6 7 -8 0 -11 6 -7 16 3
8 2 13 -3 10 -9 -6 -34 46 -34 70 0 8 -4 14 -9 14 -5 0 -7 4 -4 9 4 5 2 11 -4
13 -5 1 -11 14 -12 28 -2 14 -10 30 -18 37 -8 7 -12 13 -8 13 3 0 -2 23 -12
50 -10 28 -15 48 -10 45 5 -3 2 8 -6 25 -9 16 -14 40 -13 52 1 13 -2 32 -7 43
-14 31 -11 422 3 436 7 7 9 24 6 40 -3 16 -2 29 3 29 5 0 10 17 12 38 1 20 7
38 12 40 5 2 6 10 3 18 -3 8 0 14 7 14 6 0 9 4 6 8 -8 13 16 82 25 76 5 -3 6
2 3 10 -3 9 -2 16 3 16 5 0 10 6 10 14 0 23 25 76 33 71 4 -3 11 2 14 11 3 8
2 12 -4 9 -6 -3 -7 1 -4 9 3 9 10 14 14 11 4 -3 11 2 14 11 4 9 2 13 -5 8 -18
-11 11 39 35 59 11 10 14 16 6 12 -8 -4 -6 1 4 9 11 9 16 16 10 16 -5 1 2 10
16 21 14 12 25 24 25 28 0 3 4 5 8 3 5 -1 6 1 3 6 -7 11 11 37 25 37 7 0 13 8
15 17 3 26 163 180 177 171 7 -3 9 -3 5 2 -4 4 -1 13 6 20 25 26 168 115 176
110 4 -3 11 2 14 11 4 9 13 14 22 10 8 -3 13 -2 10 3 -10 15 304 148 323 137
5 -4 11 -2 13 3 4 13 166 54 189 48 12 -3 17 -1 13 5 -5 7 4 9 25 6 17 -2 31
0 31 5 0 5 15 7 35 4 21 -3 33 -2 30 4 -4 5 3 9 14 9 10 0 28 3 38 6 13 4 15
3 4 -4 -10 -7 -6 -9 14 -9 18 0 23 2 14 8 -18 11 140 17 164 6 9 -4 17 -4 17
0z m57 -4473 c-3 -3 -12 -4 -19 -1 -8 3 -5 6 6 6 11 1 17 -2 13 -5z"/>
<path d="M2461 4521 c-1 -8 -3 -12 -7 -9 -3 3 -20 2 -39 -2 -21 -5 -38 -3 -46
4 -9 8 -10 8 -4 -3 6 -11 0 -13 -28 -9 -20 2 -34 2 -31 -1 7 -7 -96 -32 -106
-26 -5 3 -10 0 -12 -6 -2 -6 -16 -12 -31 -12 -15 -1 -27 -6 -27 -11 0 -4 -9
-6 -20 -3 -12 3 -18 1 -14 -5 4 -6 1 -9 -7 -6 -8 3 -20 -2 -28 -9 -7 -8 -19
-12 -27 -9 -7 3 -14 2 -16 -3 -4 -10 -158 -92 -158 -84 0 4 -6 0 -12 -8 -7 -9
-33 -31 -58 -49 -69 -52 -160 -136 -210 -196 -83 -97 -175 -286 -203 -414 -24
-107 -28 -263 -10 -378 7 -46 10 -88 7 -94 -5 -7 -2 -8 6 -3 10 6 12 3 8 -13
-3 -12 -1 -23 4 -24 6 -2 11 -18 12 -35 0 -17 4 -29 9 -26 4 2 7 -2 7 -9 0
-20 61 -144 103 -209 20 -31 33 -60 29 -64 -4 -5 -1 -5 6 -1 6 4 12 3 12 -2 0
-28 166 -190 265 -258 41 -28 71 -55 67 -59 -4 -5 -2 -5 5 -2 6 4 36 -6 66
-22 78 -41 152 -67 243 -86 87 -18 120 -21 334 -30 80 -4 154 -8 165 -9 64 -8
104 -19 100 -27 -4 -5 0 -6 8 -3 8 3 46 -10 84 -30 110 -55 204 -133 195 -161
-2 -5 0 -7 4 -3 11 12 52 -54 80 -130 19 -48 27 -93 30 -160 2 -52 1 -91 -4
-88 -5 3 -7 -6 -4 -19 2 -14 0 -25 -4 -25 -5 0 -10 -15 -11 -33 -2 -17 -10
-37 -18 -44 -9 -6 -16 -13 -15 -15 5 -9 -24 -57 -32 -52 -5 3 -8 2 -7 -3 4
-21 -2 -34 -13 -27 -6 4 -8 3 -5 -3 8 -13 -21 -53 -39 -53 -8 0 -13 -4 -10 -9
8 -12 -113 -93 -127 -84 -5 3 -7 2 -4 -4 8 -12 -59 -37 -74 -27 -8 5 -9 3 -4
-6 6 -10 1 -12 -24 -7 -21 5 -30 3 -25 -4 4 -7 -16 -9 -62 -5 -47 3 -58 2 -34
-3 35 -8 34 -8 -13 -10 -34 -1 -46 2 -41 11 5 7 3 8 -7 2 -20 -12 -39 -14 -39
-3 0 13 -28 11 -32 -2 -3 -8 -10 -6 -20 5 -9 9 -23 16 -30 16 -10 0 -9 -3 2
-11 12 -9 12 -10 -3 -5 -10 3 -26 6 -35 7 -14 0 -13 2 3 10 16 7 13 8 -12 4
-38 -5 -66 3 -57 16 3 6 -5 7 -20 3 -16 -4 -26 -2 -26 5 0 6 -7 8 -17 4 -11
-5 -14 -3 -8 6 5 10 2 11 -14 6 -11 -3 -21 -2 -21 3 0 6 -10 8 -22 4 -16 -4
-19 -2 -13 8 5 8 4 11 -2 7 -12 -8 -96 17 -87 25 3 4 -3 4 -15 1 -13 -3 -21
-1 -21 6 0 7 -4 9 -10 6 -13 -8 -90 16 -90 28 0 6 -3 7 -7 4 -3 -4 -13 -1 -21
6 -11 8 -13 8 -9 0 5 -7 0 -9 -13 -6 -11 3 -17 9 -14 14 3 5 -2 6 -10 3 -9 -3
-16 -1 -16 6 0 6 -5 8 -10 5 -14 -8 -52 4 -45 15 3 4 -5 6 -17 2 -16 -4 -19
-2 -13 9 5 8 5 11 0 7 -4 -4 -15 -2 -23 5 -11 8 -13 8 -9 0 5 -7 0 -9 -13 -6
-11 3 -17 10 -14 15 4 6 -2 7 -16 3 -14 -5 -20 -3 -16 3 6 10 -53 36 -62 27
-3 -3 1 -5 8 -5 7 0 11 -2 8 -5 -9 -9 -38 7 -32 17 4 6 -2 8 -15 3 -13 -4 -21
-2 -21 5 0 6 -4 9 -9 6 -5 -4 -12 0 -14 6 -4 10 -6 10 -6 1 -1 -8 -9 -5 -22 8
-11 11 -27 18 -35 15 -8 -3 -14 -1 -14 4 0 5 -7 6 -17 3 -12 -5 -14 -3 -8 7 5
9 4 11 -4 6 -6 -4 -19 -2 -28 6 -10 7 -14 8 -10 1 5 -8 1 -8 -17 0 -13 7 -22
16 -19 21 4 5 1 6 -5 3 -15 -10 -43 3 -35 16 4 6 0 8 -10 4 -10 -3 -17 -2 -17
4 0 6 -4 7 -10 4 -5 -3 -10 -1 -10 5 0 6 -4 8 -10 5 -5 -3 -10 -1 -10 5 0 6
-4 9 -9 6 -5 -3 -12 1 -15 10 -3 8 -10 13 -15 9 -13 -7 -83 30 -73 39 4 4 3 6
-3 5 -17 -5 -56 12 -50 22 3 5 0 6 -8 3 -8 -3 -18 0 -23 7 -5 8 -3 10 6 4 8
-5 11 -4 6 3 -4 6 -12 9 -19 7 -7 -3 -23 5 -37 16 -14 11 -19 17 -11 13 9 -5
12 -3 7 5 -4 6 -12 9 -17 5 -11 -6 -111 70 -104 80 3 3 2 4 -1 1 -9 -6 -51 25
-118 86 l-55 50 16 -47 c9 -25 33 -82 54 -126 22 -43 39 -83 39 -88 0 -6 5
-10 10 -10 6 0 10 -4 10 -10 0 -5 14 -33 31 -62 18 -29 32 -58 32 -65 0 -7 3
-10 7 -8 3 2 17 -14 30 -36 14 -21 28 -39 32 -39 5 0 8 -6 8 -12 1 -7 14 -28
30 -47 16 -19 26 -39 23 -44 -3 -6 -1 -7 4 -4 10 7 28 -20 25 -36 -1 -4 2 -6
6 -5 13 5 81 -75 75 -86 -4 -6 -3 -8 1 -5 4 4 43 -29 87 -72 137 -135 345
-284 517 -373 69 -35 238 -104 272 -111 67 -14 109 -29 103 -38 -3 -6 -1 -7 6
-3 6 4 46 0 89 -8 131 -26 143 -28 272 -30 238 -5 398 22 590 101 188 77 342
184 441 309 15 19 31 36 36 37 4 1 7 5 6 9 -1 3 11 21 27 38 16 17 29 34 30
38 2 24 13 41 22 36 6 -4 8 -2 4 4 -3 6 0 16 7 24 7 7 14 17 14 21 2 15 58
142 64 145 4 2 4 12 1 24 -3 13 -1 19 5 15 7 -5 9 1 5 15 -3 12 -1 19 4 15 6
-3 10 10 10 31 1 20 4 48 7 62 4 14 8 49 8 78 1 29 5 55 9 57 22 14 -25 266
-71 379 -15 38 -26 73 -23 78 3 4 1 8 -3 8 -5 0 -17 17 -28 38 -11 20 -32 56
-47 78 -15 23 -24 45 -20 49 4 5 1 5 -5 1 -7 -4 -13 -3 -13 2 0 4 -27 40 -60
79 -32 39 -57 73 -55 77 3 3 2 4 -2 1 -10 -8 -33 16 -26 28 3 5 2 7 -4 4 -5
-3 -34 17 -63 45 -29 28 -50 46 -46 39 4 -6 -28 12 -71 42 -43 29 -99 62 -125
73 -27 10 -48 22 -48 26 0 4 -7 4 -17 1 -9 -4 -14 -2 -11 3 4 5 -6 10 -20 11
-15 0 -28 6 -30 12 -2 6 -8 9 -12 6 -13 -8 -61 6 -55 15 3 5 -4 6 -15 3 -11
-3 -20 -1 -20 4 0 6 -11 8 -25 5 -15 -2 -25 0 -25 7 0 6 -5 11 -11 11 -5 0 -8
-4 -5 -8 2 -4 -11 -6 -30 -4 -18 2 -32 8 -29 12 4 6 -24 6 -62 -1 -29 -5 -173
2 -169 9 2 4 -11 9 -30 10 -21 2 -33 -1 -30 -7 7 -11 -13 -9 -33 3 -10 6 -12
5 -7 -2 5 -9 1 -10 -16 -3 -13 4 -29 6 -37 3 -8 -2 -11 0 -8 5 4 6 -4 8 -20 5
-19 -4 -24 -2 -18 8 5 9 2 10 -12 6 -23 -7 -87 16 -76 28 4 4 0 4 -10 0 -10
-3 -17 -1 -17 6 0 6 -4 9 -9 5 -5 -3 -17 2 -25 11 -9 8 -16 12 -16 7 0 -4 -7
1 -15 11 -8 11 -15 16 -15 11 0 -4 -15 7 -32 26 -18 20 -26 26 -18 14 8 -12
-9 3 -38 33 -29 30 -51 56 -48 59 3 3 -4 14 -14 25 -24 27 -64 134 -56 153 3
9 2 14 -3 11 -12 -8 -19 60 -9 78 5 8 4 17 0 20 -11 7 8 126 20 126 5 0 6 5 3
11 -9 14 39 111 74 148 16 17 27 32 25 34 -2 2 6 12 18 23 22 19 23 19 8 -1
-14 -19 -14 -19 3 -6 9 7 17 20 17 27 0 13 13 19 35 14 6 -1 7 2 3 5 -9 10 39
48 51 41 5 -3 12 1 15 10 4 9 13 14 22 10 8 -3 12 -2 9 4 -6 9 -1 11 38 14 6
1 15 5 19 10 3 5 22 10 41 10 19 1 33 4 30 9 -4 7 7 9 132 12 90 3 147 -3 140
-15 -3 -5 4 -6 14 -3 11 3 44 -3 73 -13 29 -9 54 -16 56 -15 1 1 16 -6 32 -14
16 -8 32 -15 35 -14 12 2 145 -43 145 -49 0 -4 10 -8 23 -8 12 -1 31 -4 42 -7
11 -3 24 -6 28 -6 5 -1 6 -4 4 -8 -3 -5 7 -9 21 -9 15 -1 45 -9 67 -19 22 -10
47 -18 55 -19 38 -4 109 -29 104 -37 -3 -5 1 -6 9 -4 11 5 181 -50 262 -85 20
-8 58 -21 62 -21 25 1 389 -218 433 -260 8 -8 31 -26 50 -41 19 -15 64 -54
100 -86 36 -33 66 -59 68 -58 4 5 -20 63 -96 228 -28 59 -48 109 -46 112 2 3
1 4 -3 1 -10 -8 -44 55 -37 67 4 6 3 9 -2 6 -5 -3 -18 6 -28 20 -11 14 -14 22
-7 17 10 -6 11 -3 2 14 -7 11 -14 21 -17 21 -3 0 -2 -4 1 -10 3 -5 4 -10 2
-10 -7 0 -39 51 -41 66 -1 7 -6 17 -11 21 -4 4 -5 2 0 -6 5 -9 4 -12 -3 -7 -7
4 -12 11 -12 16 0 5 -18 27 -40 50 -22 23 -38 45 -35 50 3 4 -3 14 -13 21 -16
13 -16 12 -2 -6 8 -11 -13 9 -45 44 -33 36 -59 70 -57 75 2 6 0 8 -4 4 -9 -10
-35 12 -28 23 3 5 2 8 -3 7 -11 -4 -59 33 -61 47 -1 6 -8 10 -14 10 -7 1 -12
6 -11 13 2 7 0 11 -5 10 -9 -4 -57 30 -57 40 0 4 -3 6 -7 5 -4 -2 -28 18 -53
43 -26 25 -44 40 -40 34 4 -7 -1 -7 -13 1 -12 7 -18 17 -16 21 3 5 2 8 -3 7
-21 -4 -34 2 -27 13 4 7 3 8 -4 4 -7 -4 -24 5 -39 21 -14 15 -23 22 -18 15 6
-11 3 -12 -13 -3 -12 6 -26 19 -31 29 -5 9 -11 15 -13 13 -6 -8 -68 18 -68 28
0 6 -7 7 -17 4 -12 -5 -14 -3 -8 7 5 8 4 11 -3 6 -13 -8 -63 14 -56 25 3 5 -1
6 -9 3 -8 -3 -17 2 -20 10 -4 9 -12 16 -19 16 -9 0 -9 -3 2 -11 12 -9 12 -10
-3 -5 -10 3 -21 6 -23 6 -3 0 -3 4 0 9 4 5 -4 7 -16 3 -14 -3 -19 -1 -14 6 5
8 1 10 -10 5 -11 -4 -15 -3 -11 4 5 7 -1 9 -15 5 -16 -4 -19 -2 -13 8 5 8 4
11 -3 6 -14 -9 -63 4 -57 14 3 5 -5 6 -17 2 -14 -3 -19 -1 -14 6 5 8 2 10 -8
6 -9 -3 -16 -2 -16 4 0 6 -9 8 -20 5 -12 -3 -20 0 -20 6 0 7 -4 10 -9 6 -15
-9 -91 6 -85 17 3 5 -5 6 -20 2 -16 -4 -26 -2 -26 5 0 6 -7 11 -16 11 -9 0
-12 -5 -8 -12 4 -6 3 -8 -3 -5 -23 14 -241 23 -340 14 -18 -2 -35 2 -37 7 -2
6 -5 5 -5 -3z m166 -1607 c-3 -3 -12 -4 -19 -1 -8 3 -5 6 6 6 11 1 17 -2 13
-5z"/>
<path d="M2140 3126 c0 -2 8 -10 18 -17 15 -13 16 -12 3 4 -13 16 -21 21 -21
13z"/>
<path d="M1490 2356 c0 -2 8 -10 18 -17 15 -13 16 -12 3 4 -13 16 -21 21 -21
13z"/>
<path d="M3629 1123 c-13 -16 -12 -17 4 -4 9 7 17 15 17 17 0 8 -8 3 -21 -13z"/>
</g>
</svg>
