<?xml version="1.0" standalone="no"?>
<!DOCTYPE svg PUBLIC "-//W3C//DTD SVG 20010904//EN"
 "http://www.w3.org/TR/2001/REC-SVG-20010904/DTD/svg10.dtd">
<svg version="1.0" xmlns="http://www.w3.org/2000/svg"
 width="1024.000000pt" height="1024.000000pt" viewBox="0 0 1024.000000 1024.000000"
 preserveAspectRatio="xMidYMid meet">
<metadata>
Created by potrace 1.14, written by Peter Selinger 2001-2017
</metadata>
<g transform="translate(0.000000,1024.000000) scale(0.100000,-0.100000)"
fill="#000000" stroke="none">
<path d="M5066 7702 c-2 -1 -44 -4 -94 -6 -50 -3 -95 -7 -99 -9 -11 -6 -111
-21 -145 -22 -14 0 -24 -4 -21 -9 4 -5 -3 -7 -15 -4 -12 3 -22 2 -24 -3 -2 -5
-24 -11 -50 -12 -25 -1 -44 -5 -42 -8 4 -7 -55 -22 -86 -23 -8 0 -18 -4 -21
-10 -4 -5 -20 -9 -37 -10 -17 0 -28 -4 -25 -8 2 -5 -4 -9 -14 -10 -10 0 -23
-2 -29 -2 -6 -1 -19 -7 -28 -15 -8 -7 -23 -11 -31 -7 -8 3 -15 1 -15 -3 0 -12
-60 -32 -73 -24 -6 4 -7 1 -2 -7 6 -10 4 -12 -11 -6 -10 4 -15 4 -11 0 6 -6
-61 -43 -88 -47 -5 -1 -12 -5 -15 -8 -12 -15 -108 -57 -115 -51 -5 4 -4 1 0
-7 6 -11 4 -13 -9 -8 -10 4 -15 3 -11 -3 6 -9 -2 -12 -22 -9 -3 0 -10 -6 -15
-15 -5 -9 -13 -14 -19 -11 -5 4 -9 2 -9 -4 0 -6 -14 -18 -32 -27 -18 -9 -38
-23 -46 -30 -13 -13 -27 -18 -45 -15 -5 1 -6 -3 -2 -8 6 -11 -54 -47 -70 -42
-5 1 -7 -1 -3 -5 4 -4 -5 -17 -21 -28 -30 -23 -50 -40 -125 -109 -27 -25 -53
-44 -58 -41 -5 3 -7 2 -6 -3 2 -4 -32 -41 -74 -81 -42 -41 -112 -115 -155
-165 -43 -50 -94 -107 -113 -126 -19 -19 -28 -31 -20 -25 9 5 5 -1 -9 -13 -14
-13 -26 -28 -26 -35 0 -14 -28 -57 -57 -89 -10 -10 -18 -22 -18 -26 0 -5 -5
-15 -12 -24 -7 -8 -14 -22 -16 -30 -2 -8 -9 -21 -16 -29 -7 -8 -20 -28 -28
-45 -8 -16 -29 -56 -47 -88 -17 -32 -33 -68 -35 -80 -2 -12 -9 -21 -16 -19 -6
1 -9 -2 -5 -7 3 -6 -3 -27 -13 -48 -11 -21 -29 -68 -41 -105 -13 -38 -27 -68
-32 -68 -6 0 -8 -4 -5 -9 3 -5 -3 -35 -13 -67 -11 -33 -22 -78 -26 -101 -4
-24 -10 -43 -13 -43 -4 0 -8 -12 -8 -27 -1 -16 -4 -37 -7 -48 -3 -11 -8 -44
-12 -74 -4 -29 -10 -49 -14 -43 -3 5 -7 -22 -8 -60 -1 -39 -8 -77 -15 -86 -11
-13 -11 -14 1 -7 11 6 13 4 8 -9 -4 -10 -7 -45 -7 -79 0 -45 -3 -58 -10 -47
-8 11 -9 7 -4 -15 10 -51 10 -110 -1 -117 -6 -5 -5 -8 3 -8 10 0 10 -5 2 -20
-8 -15 -8 -20 2 -20 9 0 9 -3 1 -11 -7 -7 -8 -20 -3 -34 6 -15 4 -27 -3 -35
-9 -10 -9 -11 1 -6 6 4 12 3 12 -1 0 -5 -6 -15 -12 -22 -11 -11 -10 -12 1 -6
11 6 12 -6 9 -63 -2 -39 0 -68 4 -66 8 5 10 -11 12 -93 1 -22 4 -39 8 -37 4 3
7 -4 6 -13 0 -10 7 -54 16 -98 9 -43 14 -85 11 -93 -2 -7 0 -10 5 -7 6 3 10
-1 10 -9 0 -8 12 -52 27 -98 15 -46 27 -86 27 -90 1 -3 4 -10 9 -14 4 -4 7
-14 7 -22 0 -7 14 -47 30 -89 17 -41 28 -79 24 -84 -3 -5 -1 -9 5 -9 11 0 83
-145 84 -167 0 -7 4 -13 8 -13 11 0 48 -77 41 -86 -4 -4 -1 -4 6 0 7 4 12 1
12 -7 0 -8 7 -20 15 -27 9 -7 14 -19 11 -27 -3 -8 -1 -11 4 -8 9 6 14 -8 11
-28 -1 -5 3 -6 9 -2 5 3 13 -2 17 -12 4 -10 19 -34 33 -53 15 -19 59 -78 98
-131 96 -129 262 -297 417 -422 5 -5 53 -40 105 -78 52 -38 100 -74 107 -79 7
-6 15 -10 18 -10 3 0 24 -12 47 -26 23 -15 88 -50 145 -79 56 -29 100 -55 97
-58 -3 -3 1 -4 8 -4 12 2 99 -31 183 -68 17 -7 43 -16 58 -19 15 -4 25 -11 22
-16 -3 -6 2 -9 12 -8 34 3 54 -2 49 -11 -4 -5 3 -7 14 -4 13 3 20 0 20 -8 0
-12 2 -12 9 0 6 9 11 10 15 2 4 -6 17 -11 30 -11 12 0 26 -3 30 -7 3 -4 17 -8
29 -10 34 -6 62 -11 62 -13 0 -1 7 -3 15 -5 8 -1 41 -8 73 -15 32 -6 72 -13
90 -15 18 -3 46 -7 62 -9 108 -17 359 -24 455 -13 25 3 72 9 105 12 33 4 74
10 92 15 18 4 45 7 62 6 16 -1 27 2 24 7 -3 5 5 8 18 6 13 -1 33 2 43 6 11 5
34 9 52 9 18 1 30 4 27 9 -2 4 4 8 14 8 24 2 35 4 53 11 52 21 123 38 133 32
7 -4 9 -3 4 1 -8 10 82 47 95 39 4 -3 8 -1 8 4 0 11 60 35 60 24 0 -4 4 -2 8
3 4 6 60 37 125 68 65 32 147 75 182 97 36 22 70 40 75 40 6 0 10 4 10 9 0 5
9 13 21 16 12 4 28 14 37 22 10 8 35 28 57 44 22 16 52 38 67 50 15 11 29 20
32 20 3 0 35 29 73 64 37 36 73 65 79 65 6 0 18 8 25 18 13 16 12 16 -6 2 -13
-9 -16 -9 -8 -1 6 7 21 18 34 25 12 6 21 15 20 19 -2 10 25 37 38 37 6 0 11 6
11 13 0 19 35 49 45 40 4 -5 5 -3 2 4 -4 6 6 22 22 36 17 14 28 27 26 29 -2 2
14 23 35 47 22 24 40 46 40 50 0 4 14 22 32 41 17 19 32 37 32 40 1 3 5 4 9 2
5 -1 6 2 2 7 -7 13 50 93 59 83 4 -3 4 1 1 10 -4 9 -1 19 6 24 8 5 10 3 4 -6
-5 -8 -4 -11 3 -6 6 4 8 14 5 23 -4 11 -3 14 6 9 6 -4 11 -4 10 1 -4 21 3 36
29 60 15 15 21 23 15 19 -7 -4 -5 6 5 23 9 17 21 31 25 31 5 0 5 5 2 10 -3 6
-1 10 4 10 6 0 10 3 9 8 -4 14 13 52 23 52 6 0 7 5 4 10 -3 6 -2 10 3 10 5 0
9 6 9 13 0 22 46 127 55 127 5 0 6 5 3 10 -3 6 -2 10 4 10 6 0 8 7 5 15 -4 8
-2 15 4 15 5 0 10 6 9 13 -1 34 4 48 15 41 6 -4 8 -3 5 3 -8 12 22 113 33 113
5 0 7 7 4 15 -4 8 -1 15 5 15 6 0 11 5 11 11 0 5 -4 8 -9 5 -5 -4 -2 16 7 44
9 27 19 50 23 50 3 0 4 11 1 25 -2 14 0 25 4 25 5 0 9 12 10 28 0 15 4 43 8
62 4 19 9 53 12 75 2 22 6 50 8 63 24 116 25 551 2 682 -2 14 -7 46 -10 71
-10 66 -15 94 -38 194 -11 50 -21 99 -22 110 0 11 -4 22 -7 25 -13 11 -60 171
-53 182 4 6 3 8 -4 5 -6 -4 -16 11 -25 38 -9 25 -13 45 -11 45 3 0 -2 7 -11
16 -9 9 -14 23 -11 31 4 9 2 11 -6 7 -7 -5 -9 0 -6 14 4 12 3 20 -1 17 -11 -6
-42 64 -35 78 4 7 4 9 -1 5 -8 -8 -56 73 -49 83 2 4 -3 10 -12 13 -9 4 -14 13
-10 21 3 9 -1 18 -9 21 -8 4 -12 10 -9 15 3 5 1 9 -5 9 -6 0 -22 21 -37 48
-15 26 -36 57 -47 69 -11 12 -16 27 -12 34 5 7 4 10 -2 6 -11 -7 -28 20 -24
36 1 5 -3 6 -8 3 -8 -6 -23 18 -18 30 1 3 -6 10 -16 15 -9 6 -14 15 -11 21 4
6 3 8 -3 5 -6 -4 -19 6 -29 21 -9 15 -25 33 -33 40 -13 11 -13 12 -1 7 8 -4 0
5 -18 20 -18 15 -29 32 -25 38 3 7 3 9 -2 5 -8 -8 -61 52 -57 65 1 5 -1 6 -6
3 -12 -7 -64 48 -55 59 5 4 3 5 -4 2 -6 -4 -33 17 -64 50 -29 32 -46 49 -39
38 11 -15 8 -15 -12 4 -15 13 -25 28 -22 33 3 5 1 7 -5 6 -5 -2 -17 6 -26 17
-9 11 -13 13 -9 5 4 -8 -13 3 -39 25 -25 21 -49 45 -52 52 -2 8 -9 12 -14 9
-5 -3 -23 7 -40 23 -17 16 -31 26 -31 23 -1 -4 -9 3 -19 15 -10 12 -21 19 -25
16 -3 -3 -8 2 -12 11 -3 9 -10 14 -14 11 -4 -3 -11 2 -14 11 -3 8 -11 12 -17
9 -5 -4 -18 0 -27 8 -9 8 -45 29 -79 46 -35 17 -63 36 -63 43 0 6 -3 9 -6 5
-7 -6 -105 41 -115 56 -3 5 -10 8 -15 8 -17 -1 -44 10 -44 19 0 5 -6 7 -14 4
-7 -3 -20 2 -29 10 -8 8 -17 12 -21 9 -3 -4 -6 -1 -6 5 0 6 -7 9 -17 5 -12 -5
-14 -3 -8 7 6 10 4 12 -8 7 -10 -3 -17 -2 -17 2 0 5 -10 7 -22 3 -14 -3 -19
-1 -14 6 5 8 2 10 -8 6 -9 -3 -16 -2 -16 4 0 6 -8 8 -19 5 -10 -3 -22 0 -25 6
-4 6 -18 11 -32 11 -14 0 -23 4 -20 9 3 5 0 9 -7 8 -44 -1 -68 4 -61 15 4 7 3
8 -5 4 -15 -9 -122 14 -115 25 3 5 -9 6 -27 2 -20 -4 -30 -2 -26 4 4 5 -6 8
-25 5 -19 -3 -28 -1 -25 5 4 6 -3 8 -18 5 -14 -2 -33 -1 -42 3 -10 4 -31 7
-48 6 -21 -1 -26 1 -16 7 8 6 -12 8 -54 4 -56 -4 -66 -2 -59 9 6 11 5 12 -7 3
-8 -6 -25 -10 -39 -7 -29 4 -240 9 -244 5z m144 -362 c14 0 32 0 40 0 65 3
119 -3 113 -13 -4 -7 1 -6 10 2 9 7 17 10 17 5 0 -5 19 -10 43 -11 23 -1 58
-4 77 -7 19 -2 42 -5 50 -5 13 -1 13 -2 0 -11 -11 -8 -8 -9 11 -5 15 4 46 1
70 -6 24 -7 49 -13 54 -14 76 -16 295 -95 380 -137 285 -141 601 -390 763
-603 25 -33 49 -62 52 -65 12 -10 100 -129 100 -135 0 -4 7 -13 15 -22 8 -8
13 -18 10 -23 -3 -4 2 -11 11 -14 8 -3 13 -10 10 -15 -3 -5 1 -12 10 -15 10
-4 14 -12 10 -23 -4 -10 -4 -14 0 -10 10 9 27 -17 85 -130 27 -54 47 -103 44
-110 -2 -8 -1 -12 4 -9 9 6 35 -54 27 -62 -3 -2 2 -11 10 -19 8 -9 13 -22 10
-30 -3 -8 -2 -12 2 -9 5 3 16 -17 24 -45 9 -27 12 -47 7 -43 -15 9 -10 -6 7
-23 8 -9 13 -24 11 -34 -3 -11 -1 -22 5 -25 5 -3 7 -13 4 -21 -4 -9 -2 -11 6
-7 7 5 9 -1 6 -19 -3 -16 -1 -24 5 -20 6 4 8 -5 4 -26 -5 -23 -3 -30 5 -25 8
5 9 -3 5 -27 -5 -25 -4 -30 3 -19 9 12 10 8 8 -15 -1 -17 1 -36 6 -43 4 -7 4
-26 1 -43 -5 -24 -4 -30 5 -24 10 6 11 -4 6 -44 -5 -42 -4 -51 6 -45 10 6 10
4 -1 -9 -10 -13 -10 -17 -1 -17 16 0 7 -413 -10 -450 -1 -3 -1 -22 0 -44 1
-21 -2 -36 -7 -33 -4 3 -9 -15 -10 -40 -2 -48 -15 -97 -65 -260 -18 -56 -36
-99 -42 -96 -5 3 -6 1 -2 -5 9 -16 -11 -62 -28 -62 -10 0 -13 6 -10 15 4 8 1
15 -5 15 -8 0 -7 6 1 20 11 17 10 22 -2 30 -10 6 -11 10 -2 10 6 0 12 10 12
23 0 18 -2 19 -11 7 -7 -11 -9 -3 -7 30 1 25 -2 51 -6 58 -4 7 -4 26 -1 43 6
24 4 30 -5 24 -10 -6 -12 -1 -7 23 3 17 2 32 -3 34 -5 2 -11 17 -14 33 -5 24
-4 26 3 10 11 -23 14 -11 5 22 -4 13 -11 20 -17 16 -6 -4 -8 2 -5 15 4 13 2
20 -3 16 -6 -3 -7 6 -4 23 5 21 4 24 -4 13 -9 -13 -11 -12 -12 5 -1 11 -1 31
0 45 1 18 -1 21 -7 12 -7 -10 -12 -6 -21 19 -13 39 -14 49 -1 29 6 -9 10 -10
10 -3 0 7 -11 24 -25 39 -14 15 -23 34 -21 41 3 8 -1 16 -9 19 -14 6 -31 41
-27 57 1 5 -2 6 -8 2 -9 -5 -12 1 -9 21 0 3 -8 12 -18 21 -11 9 -12 12 -3 8 8
-4 6 1 -4 9 -11 9 -17 16 -13 16 3 0 -5 11 -19 25 -15 15 -22 30 -18 38 4 6 4
9 -1 5 -4 -4 -18 6 -31 23 -12 17 -38 48 -58 69 -19 21 -34 39 -33 41 1 2 -29
35 -68 74 -38 38 -63 61 -55 50 8 -11 -6 -2 -32 20 -26 21 -45 42 -42 47 3 4
-1 5 -9 2 -8 -3 -20 3 -28 13 -13 17 -13 17 6 3 19 -14 19 -14 6 2 -7 10 -17
15 -22 12 -12 -7 -81 41 -71 50 4 4 2 6 -3 4 -14 -4 -95 33 -95 43 0 5 -7 5
-17 2 -11 -4 -14 -3 -9 5 4 8 2 10 -7 6 -8 -3 -21 2 -30 10 -8 8 -17 12 -21 9
-3 -4 -16 -2 -29 4 -33 16 -101 33 -129 33 -14 0 -28 3 -31 7 -6 5 -130 5
-294 -1 -19 -1 -33 -6 -33 -13 0 -11 20 -18 43 -14 4 0 7 -4 7 -10 0 -6 5 -9
12 -7 7 3 43 -11 80 -29 38 -18 71 -33 73 -33 11 0 169 -102 223 -144 118 -91
181 -153 278 -271 46 -57 84 -106 84 -110 0 -3 13 -25 29 -49 50 -73 83 -137
77 -152 -4 -10 -2 -12 6 -8 8 5 9 1 4 -12 -4 -10 -4 -15 0 -11 10 9 36 -44 29
-60 -2 -8 -1 -12 3 -9 12 7 45 -101 36 -116 -4 -6 -3 -8 3 -5 6 4 13 0 17 -8
3 -8 1 -15 -4 -15 -6 0 -10 -8 -10 -17 0 -14 2 -15 9 -4 6 10 11 1 16 -28 4
-23 4 -45 1 -48 -3 -4 -2 -11 3 -17 9 -10 16 -45 11 -56 -7 -18 -7 -39 0 -35
12 7 18 -63 6 -75 -7 -7 -7 -10 0 -10 19 0 6 -201 -22 -337 -14 -71 -90 -292
-103 -303 -3 -3 -14 -21 -24 -40 -32 -64 -70 -124 -115 -185 -57 -75 -78 -96
-88 -87 -4 4 -4 2 -1 -4 7 -13 -101 -116 -113 -109 -5 3 -12 0 -16 -6 -5 -8
-2 -10 7 -4 8 4 -2 -6 -21 -23 -19 -17 -40 -31 -47 -32 -6 0 -13 -4 -15 -8 -7
-18 -99 -73 -110 -66 -7 5 -8 3 -3 -6 6 -10 4 -12 -11 -6 -10 4 -15 4 -11 0
10 -10 -31 -36 -45 -28 -6 4 -8 3 -5 -3 4 -6 -5 -15 -19 -22 -20 -9 -24 -9
-19 1 4 7 0 5 -9 -6 -8 -10 -19 -15 -25 -11 -6 3 -11 2 -11 -3 0 -13 -50 -33
-63 -26 -7 4 -9 3 -4 -1 9 -11 -83 -47 -101 -40 -7 3 -11 1 -8 -3 7 -11 -191
-65 -215 -59 -10 3 -19 1 -19 -5 0 -5 -10 -8 -22 -7 -13 1 -30 -1 -38 -4 -35
-15 -129 -24 -140 -13 -8 8 -13 7 -19 -2 -5 -8 -25 -12 -53 -11 -24 1 -50 -1
-58 -6 -8 -5 -11 -4 -7 2 4 6 -4 11 -18 11 -14 0 -23 -4 -20 -8 2 -3 -2 -7
-10 -7 -8 0 -12 3 -10 7 2 4 -12 7 -31 8 -23 1 -33 -2 -28 -10 5 -7 3 -8 -6
-3 -7 5 -40 7 -73 6 -39 -1 -57 1 -52 8 3 7 -3 11 -14 11 -12 0 -21 -4 -21
-10 0 -9 -8 -8 -47 6 -10 4 -33 6 -52 5 -18 -2 -31 1 -28 6 3 5 -10 7 -29 5
-21 -3 -34 0 -34 7 0 7 -5 9 -10 6 -6 -4 -24 -3 -42 0 -23 5 -27 9 -17 16 9 6
2 7 -18 3 -18 -4 -33 -3 -33 2 0 5 -10 10 -23 11 -12 0 -35 7 -52 14 -16 7
-36 11 -44 10 -8 -1 -10 2 -5 10 5 9 2 10 -9 6 -22 -8 -49 2 -40 16 3 6 1 7
-6 3 -14 -9 -53 2 -46 14 3 4 -5 6 -17 2 -14 -3 -19 -1 -14 6 5 8 2 10 -8 6
-9 -3 -16 -1 -16 5 0 6 -3 10 -7 10 -25 -4 -43 2 -37 13 5 8 2 9 -9 5 -10 -3
-17 -2 -17 4 0 6 -3 8 -7 6 -11 -7 -94 39 -86 47 4 4 0 4 -9 1 -10 -4 -24 1
-36 12 -10 10 -25 19 -33 21 -8 2 -20 10 -26 19 -7 9 -13 13 -13 8 0 -5 -7 0
-16 11 -8 10 -12 13 -8 5 8 -16 3 -14 -66 32 -25 17 -55 42 -68 56 -13 14 -20
20 -16 12 6 -12 4 -12 -14 0 -56 40 -189 155 -186 161 2 4 -5 9 -16 13 -41 13
-295 309 -283 330 4 5 3 7 -2 3 -9 -9 -76 82 -69 94 3 4 1 8 -4 8 -11 0 -40
41 -44 62 -2 7 -9 19 -16 26 -7 8 -9 18 -6 24 4 6 2 8 -3 5 -21 -13 -171 336
-198 459 -2 10 -9 34 -14 53 -6 19 -8 37 -6 42 3 4 0 9 -6 11 -6 2 -11 22 -12
45 0 23 -4 40 -8 37 -4 -2 -9 10 -11 26 -3 17 -1 30 4 30 4 0 8 5 8 11 0 5 -5
7 -10 4 -7 -4 -11 6 -11 27 0 72 -4 113 -14 120 -6 5 -5 8 3 8 10 0 10 5 2 20
-11 21 -16 298 -6 381 3 24 8 72 11 105 2 34 7 68 9 75 3 8 8 31 11 52 6 46
23 122 35 157 4 14 18 57 31 97 12 40 26 70 31 67 4 -3 5 2 2 10 -3 9 -1 16 6
16 6 0 9 4 6 9 -3 5 1 14 9 21 20 17 24 4 27 -103 2 -53 -1 -87 -7 -87 -5 0
-4 -4 4 -9 10 -6 12 -19 7 -42 -4 -26 -3 -30 5 -19 8 11 9 4 5 -30 -5 -34 -4
-41 5 -30 8 12 10 9 6 -12 -2 -16 0 -28 6 -28 5 0 7 -9 4 -20 -3 -12 -1 -18 5
-14 7 5 9 -2 6 -19 -3 -17 -1 -24 5 -20 6 4 8 0 4 -10 -4 -10 -2 -17 4 -17 6
0 9 -9 6 -20 -3 -11 -1 -18 4 -14 8 5 13 -12 12 -43 -1 -7 3 -10 8 -7 5 3 9 0
9 -6 0 -14 64 -148 109 -225 30 -53 109 -160 151 -206 81 -88 126 -131 190
-181 41 -32 80 -62 86 -68 25 -19 172 -90 229 -108 57 -19 73 -23 170 -39 37
-6 150 -8 268 -4 26 0 47 6 47 11 0 6 -5 10 -12 10 -23 0 -238 112 -233 121 3
5 0 7 -7 4 -7 -3 -24 5 -38 16 -14 11 -19 17 -11 13 9 -5 12 -3 7 5 -4 6 -11
9 -16 6 -13 -8 -61 25 -54 36 3 5 -1 6 -9 3 -9 -3 -31 14 -57 43 -24 26 -37
39 -30 28 8 -11 -12 4 -43 34 -31 30 -54 58 -51 63 3 5 0 7 -8 6 -7 -2 -12 3
-10 10 1 8 -1 11 -6 8 -13 -8 -106 106 -97 118 3 3 2 4 -2 1 -6 -5 -80 95 -75
102 1 1 -7 12 -18 23 -12 12 -18 26 -14 32 4 6 3 8 -4 4 -11 -7 -28 30 -23 53
1 8 -2 10 -10 5 -9 -5 -10 -2 -6 10 4 9 3 15 -2 12 -11 -7 -33 43 -25 56 5 7
2 8 -6 3 -8 -5 -11 -3 -8 6 3 8 -2 20 -9 28 -8 7 -12 20 -9 27 3 8 1 14 -5 14
-6 0 -9 7 -5 15 3 8 1 15 -4 15 -11 0 -41 93 -56 175 -19 107 -23 163 -20 310
1 110 6 178 14 193 7 12 8 22 3 22 -5 0 -7 9 -4 20 3 11 9 18 13 15 4 -2 5 7
2 22 -3 16 -1 24 5 20 6 -4 8 3 5 18 -2 15 0 25 7 25 7 0 10 4 7 9 -8 12 28
114 37 104 5 -4 5 0 1 10 -3 10 -1 17 6 17 6 0 8 5 5 10 -3 6 -1 10 5 10 6 0
8 4 5 10 -3 5 1 22 9 37 8 16 15 24 16 18 0 -11 24 23 33 48 4 11 3 16 -4 11
-6 -3 -1 12 10 34 12 23 29 45 38 51 10 5 16 11 13 13 -3 2 5 16 16 30 12 15
25 24 29 20 5 -4 6 -2 2 3 -7 14 9 40 24 40 7 0 13 7 15 16 2 21 83 105 96
101 5 -1 7 2 4 7 -7 11 68 73 78 64 3 -3 6 0 6 8 0 16 152 122 175 122 8 0 15
4 15 9 0 24 338 166 362 152 4 -3 8 -1 8 4 0 8 32 19 120 40 14 3 39 6 57 6
17 1 29 4 27 7 -2 4 7 9 21 11 13 3 22 1 19 -3 -3 -5 0 -9 5 -9 6 0 11 4 11 9
0 5 11 11 25 13 14 3 25 1 25 -3 0 -5 5 -9 11 -9 5 0 8 4 5 9 -3 5 7 11 24 13
16 2 27 1 24 -4 -3 -4 5 -8 18 -8 18 0 20 2 9 9 -10 6 7 9 48 10 35 0 65 1 66
3 2 2 21 2 42 1 21 -1 49 -2 63 -3z m-1529 -803 c-10 -9 -11 -8 -5 6 3 10 9
15 12 12 3 -3 0 -11 -7 -18z"/>
<path d="M5011 7005 c-1 -10 -24 -14 -101 -18 -19 -1 -37 -4 -40 -8 -8 -9
-111 -29 -120 -24 -5 3 -10 0 -12 -7 -2 -6 -19 -11 -36 -11 -23 0 -29 -3 -20
-9 9 -7 4 -8 -14 -5 -17 2 -25 0 -21 -6 4 -6 0 -8 -11 -4 -10 4 -15 3 -11 -3
6 -9 1 -11 -37 -14 -7 -1 -15 -4 -18 -7 -9 -10 -160 -89 -160 -84 0 3 -8 -3
-19 -12 -10 -10 -33 -29 -52 -43 -169 -127 -304 -301 -370 -475 -4 -11 -13
-36 -20 -55 -8 -19 -14 -39 -16 -45 -1 -5 -4 -21 -7 -34 -21 -95 -25 -265 -9
-375 7 -49 10 -93 7 -97 -3 -5 0 -9 6 -9 7 0 10 -7 6 -15 -3 -8 -1 -15 3 -15
5 0 12 -7 15 -16 4 -10 2 -13 -7 -8 -8 6 -8 3 1 -9 8 -9 10 -22 6 -28 -4 -8
-3 -9 4 -5 7 4 12 3 12 -3 0 -5 5 -22 12 -38 6 -15 12 -30 13 -33 1 -5 20 -41
47 -90 8 -14 25 -43 39 -65 13 -22 22 -44 21 -50 -2 -5 0 -7 4 -2 4 4 15 -4
23 -17 47 -71 187 -200 283 -261 26 -16 45 -32 42 -36 -2 -4 2 -6 9 -5 6 0 41
-13 77 -31 63 -30 90 -41 100 -40 3 0 15 -5 28 -12 24 -13 45 -18 97 -26 17
-3 41 -7 55 -10 30 -7 118 -13 296 -20 138 -5 237 -19 242 -35 2 -5 9 -7 16
-4 8 3 49 -12 92 -33 128 -62 235 -180 278 -304 10 -28 10 -39 2 -39 -7 0 -6
-4 2 -9 8 -4 12 -14 11 -22 -1 -8 1 -22 6 -32 10 -24 -1 -171 -13 -175 -5 -1
-7 -12 -4 -24 3 -14 1 -19 -6 -14 -8 4 -10 2 -6 -7 3 -8 -1 -21 -9 -28 -7 -8
-14 -16 -14 -19 -4 -21 -28 -58 -35 -54 -5 3 -8 2 -7 -3 3 -20 -2 -34 -11 -28
-6 4 -10 3 -9 -2 4 -21 -2 -33 -17 -33 -8 0 -13 -4 -10 -9 11 -17 -133 -118
-148 -104 -3 4 -6 2 -6 -4 0 -15 -56 -36 -71 -27 -8 5 -9 3 -4 -6 6 -10 1 -12
-24 -7 -22 5 -30 3 -25 -4 5 -8 -12 -10 -57 -6 -45 4 -54 3 -29 -3 29 -6 22
-8 -37 -7 -40 0 -73 4 -73 9 0 5 -13 7 -29 3 -16 -3 -47 -3 -67 1 -33 6 -36 8
-19 16 15 6 12 7 -11 4 -42 -7 -80 3 -62 16 9 7 4 8 -14 4 -16 -4 -28 -2 -28
3 0 6 -7 7 -17 4 -10 -4 -14 -2 -10 4 4 6 -7 10 -25 10 -18 0 -34 5 -36 11 -2
6 -9 9 -17 6 -7 -3 -22 -1 -33 5 -10 5 -32 12 -48 15 -16 3 -30 10 -32 15 -2
6 -9 8 -16 5 -8 -3 -31 2 -52 12 -22 9 -45 16 -51 15 -7 -1 -13 3 -13 8 0 6
-7 8 -15 5 -8 -4 -15 -1 -15 6 0 6 -5 8 -10 5 -14 -8 -82 14 -75 25 3 4 -5 6
-17 2 -16 -4 -19 -2 -13 9 5 8 5 11 0 7 -4 -4 -15 -2 -23 5 -11 8 -13 8 -9 0
5 -7 0 -9 -14 -6 -16 5 -18 8 -7 15 9 7 4 8 -15 3 -17 -3 -26 -2 -23 4 6 10
-23 25 -32 16 -3 -3 1 -5 8 -5 7 0 11 -2 8 -5 -9 -9 -38 6 -32 16 3 6 -5 7
-19 4 -15 -4 -30 -1 -38 8 -8 7 -20 12 -28 9 -8 -3 -11 0 -7 7 5 7 1 9 -8 5
-9 -3 -16 -1 -16 5 0 6 -7 8 -17 4 -12 -5 -14 -3 -8 7 6 10 4 12 -8 7 -10 -3
-17 -2 -17 3 0 5 -7 6 -17 3 -10 -4 -14 -2 -10 4 5 7 0 9 -13 6 -11 -3 -20 0
-20 6 0 5 -7 8 -15 5 -8 -4 -17 1 -21 10 -3 9 -10 14 -14 11 -13 -8 -40 6 -33
18 4 6 0 8 -10 4 -10 -3 -17 -2 -17 4 0 6 -4 7 -10 4 -5 -3 -10 -1 -10 5 0 6
-4 8 -10 5 -5 -3 -10 -1 -10 4 0 6 -3 10 -7 10 -20 -3 -34 2 -28 11 3 5 0 7
-8 4 -8 -3 -23 3 -32 13 -10 10 -20 17 -22 16 -10 -8 -23 -1 -17 9 4 6 3 9 -2
6 -15 -9 -56 11 -48 23 4 7 3 9 -3 6 -6 -4 -13 0 -17 8 -3 8 -12 12 -20 9 -7
-3 -20 3 -27 13 -8 10 -20 19 -26 20 -26 6 -113 75 -106 85 3 6 1 8 -4 5 -6
-4 -47 25 -92 63 l-81 70 24 -62 c34 -91 149 -314 170 -329 5 -4 5 -13 1 -20
-5 -8 -5 -11 0 -7 11 10 56 -52 48 -65 -3 -6 -1 -7 4 -4 9 6 20 -7 23 -28 1
-2 14 -18 30 -36 17 -17 27 -36 23 -42 -3 -5 -1 -7 4 -4 10 7 28 -20 25 -36
-1 -4 1 -6 6 -5 10 4 83 -77 77 -86 -3 -3 -2 -4 1 -2 3 3 34 -23 67 -57 88
-88 186 -175 192 -169 2 3 7 -3 11 -12 3 -9 10 -16 14 -16 7 0 171 -105 215
-138 20 -15 235 -123 235 -118 0 3 19 -3 43 -13 78 -34 79 -34 144 -47 18 -3
31 -9 29 -13 -2 -3 6 -6 17 -7 12 0 56 -8 98 -17 42 -9 98 -20 125 -23 59 -8
394 -11 394 -4 0 3 9 6 21 7 30 3 129 23 165 34 17 5 40 11 50 14 81 17 269
108 358 172 28 20 56 36 63 36 6 0 11 3 10 6 -2 8 102 111 112 111 5 0 15 8
22 18 13 16 12 16 -6 3 -11 -7 -4 1 15 19 19 18 28 29 20 26 -8 -4 -4 3 10 16
26 24 30 30 30 49 0 5 5 7 10 4 6 -4 9 -3 8 2 -4 17 14 53 24 47 6 -4 8 -2 4
4 -3 6 0 16 7 24 7 7 14 17 14 21 2 15 58 142 64 145 4 2 4 12 1 24 -3 13 -1
19 5 15 7 -5 9 1 5 15 -3 14 -2 19 6 14 7 -4 12 -2 12 3 0 6 -4 11 -9 11 -5 0
-7 9 -4 21 4 14 8 17 13 8 4 -6 7 3 5 22 -1 19 0 38 3 44 3 5 5 26 3 46 -1 20
3 40 8 44 6 3 8 12 4 18 -11 17 -10 41 2 49 6 5 5 8 -4 8 -11 0 -11 3 -1 15 9
10 9 19 2 28 -5 6 -11 39 -13 72 -2 33 -7 62 -11 65 -4 4 -9 23 -10 43 -2 20
-6 37 -10 37 -5 0 -8 6 -8 14 0 7 -13 45 -29 84 -16 39 -27 73 -23 76 3 3 1 6
-5 6 -6 0 -18 15 -28 33 -34 65 -62 106 -125 183 -36 44 -64 82 -62 87 1 4 -2
6 -7 5 -5 -2 -39 25 -76 60 -37 35 -64 59 -61 54 3 -6 -29 14 -73 43 -43 29
-99 60 -125 70 -25 10 -46 22 -46 27 0 5 -4 6 -10 3 -5 -3 -10 -2 -10 3 0 6
-6 10 -12 9 -37 -1 -58 4 -53 13 3 6 -1 7 -9 4 -9 -3 -16 -1 -16 5 0 6 -7 8
-15 5 -8 -4 -15 -2 -15 4 0 6 -9 8 -20 5 -11 -3 -20 -1 -20 4 0 5 -13 8 -30 5
-16 -2 -30 0 -30 5 0 5 -21 7 -47 6 -35 -2 -44 0 -33 7 14 10 1 10 -45 0 -32
-7 -165 1 -160 10 3 6 1 10 -4 10 -6 0 -11 -4 -11 -10 0 -5 -10 -10 -22 -9
-22 0 -22 1 -3 9 16 7 11 9 -20 9 -31 0 -36 -2 -20 -9 16 -7 17 -9 3 -9 -9 -1
-19 3 -22 8 -3 4 -16 6 -30 4 -13 -3 -27 0 -30 6 -4 6 -12 11 -17 11 -6 0 -8
-4 -5 -9 4 -5 -3 -7 -14 -4 -11 3 -17 10 -14 15 4 6 -2 7 -16 3 -17 -5 -21 -4
-15 6 6 9 3 11 -10 5 -21 -8 -58 2 -50 14 3 4 -3 6 -13 3 -11 -2 -26 3 -35 11
-8 9 -21 16 -27 16 -6 0 -8 5 -4 12 5 7 3 8 -6 3 -8 -5 -25 6 -49 32 -20 21
-29 30 -21 18 8 -12 -9 3 -37 33 -29 30 -50 59 -47 63 3 5 1 9 -5 9 -15 0 -43
58 -35 72 4 6 3 8 -3 5 -10 -6 -27 39 -38 103 -10 57 -8 174 3 178 5 1 8 12 5
22 -3 12 0 20 6 20 7 0 10 4 6 9 -8 13 36 111 47 105 5 -3 8 -2 7 3 -3 20 2
34 11 28 6 -4 10 -3 9 2 -4 21 2 33 16 33 8 0 15 6 15 14 0 7 8 20 18 27 16
13 16 12 3 -6 -8 -11 2 -2 22 20 20 22 36 36 37 31 0 -6 7 -1 16 10 8 10 13
12 9 4 -4 -8 2 -5 12 8 10 13 28 24 40 25 12 0 19 5 17 9 -5 7 13 12 43 11 7
-1 11 2 8 6 -2 4 14 12 35 18 22 5 37 6 34 2 -3 -5 -1 -9 5 -9 5 0 11 5 13 11
9 27 301 13 349 -17 5 -3 17 -7 26 -9 68 -15 252 -83 246 -90 -4 -4 -3 -5 3
-2 16 9 127 -27 117 -38 -4 -4 -2 -5 4 -1 16 9 93 -12 93 -25 0 -6 5 -7 10 -4
14 9 110 -26 110 -39 0 -7 3 -6 8 1 5 8 18 6 47 -8 22 -11 40 -19 40 -19 0 9
209 -69 314 -117 20 -9 86 -46 146 -81 94 -56 131 -80 210 -139 23 -17 143
-120 180 -155 22 -20 41 -35 43 -34 3 4 -81 202 -114 267 -13 26 -20 50 -16
54 4 5 1 4 -7 0 -11 -6 -13 -4 -7 11 4 10 4 15 0 11 -10 -10 -46 52 -38 65 4
6 3 9 -2 6 -5 -3 -18 6 -28 20 -11 14 -14 22 -8 18 22 -14 12 3 -23 39 -20 19
-33 40 -30 45 3 5 -7 19 -23 30 -16 12 -47 43 -68 68 -21 26 -29 40 -19 32 19
-14 19 -14 6 3 -7 9 -17 17 -22 17 -14 0 -94 92 -91 104 2 6 0 8 -4 4 -9 -10
-35 12 -28 23 3 5 2 8 -3 7 -11 -4 -59 33 -61 47 -1 6 -8 10 -14 10 -7 1 -12
7 -10 14 1 7 -2 10 -7 6 -6 -3 -20 8 -32 24 -12 16 -32 32 -45 35 -13 4 -24
13 -24 21 0 7 -5 17 -12 21 -7 5 -9 2 -4 -7 4 -8 -5 0 -19 16 -15 17 -24 24
-20 17 6 -11 3 -11 -13 -1 -12 7 -18 17 -16 21 3 5 2 8 -3 7 -21 -4 -34 2 -27
13 4 7 3 8 -4 4 -7 -4 -24 5 -39 21 -14 15 -23 21 -19 13 4 -8 -2 -4 -14 10
-12 14 -19 19 -15 13 4 -9 1 -11 -9 -7 -9 3 -13 11 -9 17 3 5 2 7 -4 4 -11 -7
-93 31 -93 44 0 4 -7 5 -17 2 -12 -5 -14 -3 -8 7 5 8 4 11 -3 7 -15 -10 -43 3
-35 16 3 5 1 7 -4 4 -14 -9 -75 12 -68 23 3 4 -1 8 -8 7 -31 -1 -48 4 -43 12
4 5 -4 7 -16 3 -16 -4 -19 -2 -13 8 5 8 4 11 -3 6 -14 -9 -63 4 -57 14 3 5 -5
6 -17 2 -13 -3 -19 -1 -15 5 5 7 -1 9 -15 5 -13 -3 -19 -1 -15 5 4 6 -4 8 -20
5 -17 -3 -24 -1 -19 6 4 6 -2 8 -16 4 -12 -3 -19 -1 -15 4 3 6 -10 9 -31 7
-29 -2 -33 -1 -17 6 14 7 6 8 -30 5 -32 -3 -43 -1 -31 4 14 6 -3 9 -50 9 -38
1 -127 1 -197 2 -71 1 -133 -1 -137 -4 -5 -3 -11 1 -13 7 -3 7 -6 8 -6 3z
m1670 -822 c13 -16 12 -17 -3 -4 -10 7 -18 15 -18 17 0 8 8 3 21 -13z"/>
<path d="M3730 6630 c-6 -11 -8 -20 -6 -20 3 0 10 9 16 20 6 11 8 20 6 20 -3
0 -10 -9 -16 -20z"/>
<path d="M6810 5276 c0 -2 8 -10 18 -17 15 -13 16 -12 3 4 -13 16 -21 21 -21
13z"/>
<path d="M5068 3803 c7 -3 16 -2 19 1 4 3 -2 6 -13 5 -11 0 -14 -3 -6 -6z"/>
<path d="M6404 3328 l-19 -23 23 19 c12 11 22 21 22 23 0 8 -8 2 -26 -19z"/>
</g>
</svg>
